<svg width="60" height="60" viewBox="0 0 60 60" fill="none" xmlns="http://www.w3.org/2000/svg">
<circle cx="29.9992" cy="29.9997" r="21.3068" fill="white" stroke="#CBD2D9" stroke-width="7"/>
<path d="M11.1006 39.4808C9.2925 40.3878 8.5412 42.6092 9.70438 44.2642C11.6157 46.9837 14.0616 49.3019 16.9059 51.0696C20.7916 53.4844 25.2694 54.7777 29.8442 54.8064C34.4191 54.8351 38.9127 53.5982 42.8284 51.2323C46.7441 48.8665 49.9293 45.4639 52.0319 41.4007C54.1344 37.3375 55.0723 32.7721 54.742 28.2091C54.4117 23.6461 52.826 19.2633 50.1603 15.5453C47.4945 11.8273 43.8525 8.91892 39.6369 7.14167C36.5511 5.84073 33.2459 5.18297 29.9219 5.19342C27.8991 5.19978 26.5196 7.0961 26.8235 9.09602C27.1274 11.0959 29.0066 12.4302 31.026 12.5489C33.0013 12.6651 34.9515 13.1163 36.7911 13.8918C39.7618 15.1442 42.3283 17.1938 44.2069 19.8139C46.0855 22.4339 47.2029 25.5225 47.4357 28.738C47.6684 31.9535 47.0074 35.1708 45.5258 38.0341C44.0442 40.8974 41.7996 43.2952 39.0402 44.9624C36.2808 46.6296 33.1141 47.5013 29.8902 47.481C26.6664 47.4608 23.5109 46.5494 20.7726 44.8477C19.077 43.7939 17.5823 42.4625 16.3466 40.9171C15.0834 39.3372 12.9088 38.5738 11.1006 39.4808Z" fill="url(#paint0_linear_1855_1595)"/>
<defs>
<linearGradient id="paint0_linear_1855_1595" x1="24.0978" y1="5.93575" x2="35.9043" y2="54.0943" gradientUnits="userSpaceOnUse">
<stop stop-color="#FC6060"/>
<stop offset="0.333333" stop-color="#C160FC"/>
<stop offset="0.692708" stop-color="#7B60E8"/>
<stop offset="1" stop-color="#3F3CFF"/>
</linearGradient>
</defs>
</svg>
