<svg width="20" height="20" viewBox="0 0 20 20" fill="none" xmlns="http://www.w3.org/2000/svg">
<g clip-path="url(#clip0_2138_4978)">
<path opacity="0.12" d="M18.3332 12.5V10.4538C18.3332 9.09868 18.3332 8.42113 18.1677 7.79394C18.0056 7.17971 17.7279 6.602 17.3495 6.09172C16.9632 5.57066 16.4341 5.1474 15.3759 4.30088L14.9974 3.99805L14.9974 3.99804C13.2138 2.57117 12.322 1.85774 11.333 1.58413C10.4606 1.34279 9.53907 1.34279 8.66668 1.58413C7.67766 1.85774 6.78587 2.57118 5.00228 3.99805L5.00228 3.99805L4.62374 4.30088C3.56559 5.1474 3.03651 5.57066 2.65015 6.09172C2.27179 6.602 1.99412 7.17971 1.83202 7.79394C1.6665 8.42113 1.6665 9.09868 1.6665 10.4538V12.5C1.6665 13.274 1.6665 13.6611 1.70928 13.986C2.00466 16.2296 3.77021 17.9952 6.01387 18.2906C6.33879 18.3333 6.7258 18.3333 7.49984 18.3333V12.5C7.49984 12.0353 7.49984 11.803 7.53827 11.6098C7.69608 10.8164 8.31628 10.1962 9.10966 10.0384C9.30285 10 9.53518 10 9.99984 10C10.4645 10 10.6968 10 10.89 10.0384C11.6834 10.1962 12.3036 10.8164 12.4614 11.6098C12.4998 11.803 12.4998 12.0353 12.4998 12.5V18.3333C13.2739 18.3333 13.6609 18.3333 13.9858 18.2906C16.2295 17.9952 17.995 16.2296 18.2904 13.986C18.3332 13.6611 18.3332 13.274 18.3332 12.5Z" fill="#B8C1CC"/>
<path fill-rule="evenodd" clip-rule="evenodd" d="M8.86667 2.30699C9.6082 2.10185 10.3915 2.10185 11.133 2.30699C11.5165 2.41306 11.909 2.61057 12.4428 2.97698C12.9844 3.34875 13.6286 3.86348 14.5289 4.58371L14.9074 4.88654C15.9968 5.75803 16.4323 6.11387 16.7471 6.53844C17.0687 6.97218 17.3047 7.46324 17.4425 7.98533C17.5774 8.49638 17.5832 9.05873 17.5832 10.4538C17.5832 11.809 17.5827 12.7821 17.5226 13.547C17.4633 14.3036 17.3491 14.793 17.1558 15.1908C16.7395 16.0476 16.0474 16.7396 15.1907 17.156C14.7928 17.3493 14.3035 17.4634 13.5468 17.5228C13.4512 17.5303 13.3523 17.5369 13.2499 17.5426V12.5L13.2499 12.4267C13.2501 12.034 13.2502 11.731 13.197 11.4635C12.98 10.3726 12.1273 9.51985 11.0364 9.30285C10.7688 9.24964 10.4659 9.24979 10.0731 9.24999L9.99986 9.25001L9.92658 9.24999C9.53385 9.24979 9.23086 9.24964 8.96336 9.30285C7.87246 9.51985 7.01969 10.3726 6.8027 11.4635C6.74949 11.731 6.74964 12.034 6.74983 12.4267L6.74986 12.5V17.5426C6.64738 17.5369 6.5485 17.5303 6.45287 17.5228C5.69623 17.4634 5.20691 17.3493 4.80905 17.156C3.95229 16.7396 3.26023 16.0476 2.84392 15.1908C2.65059 14.793 2.53645 14.3036 2.47708 13.547C2.41706 12.7821 2.41652 11.809 2.41652 10.4538C2.41652 9.05872 2.42234 8.49638 2.55721 7.98533C2.695 7.46324 2.93101 6.97218 3.25262 6.53844C3.56744 6.11387 4.00292 5.75803 5.09228 4.88654L5.47082 4.58371C6.37111 3.86348 7.01527 3.34875 7.55689 2.97698C8.09072 2.61057 8.48326 2.41306 8.86667 2.30699ZM7.3436 19.067C7.394 19.0777 7.44627 19.0833 7.49986 19.0833C7.54197 19.0833 7.58327 19.0799 7.6235 19.0732C8.17993 19.0834 8.80575 19.0833 9.51385 19.0833H9.5139H9.54608H10.4536H10.4858H10.4859C11.194 19.0833 11.8198 19.0834 12.3762 19.0732C12.4164 19.0799 12.4577 19.0833 12.4999 19.0833C12.5534 19.0833 12.6057 19.0777 12.6561 19.067C13.0225 19.0575 13.3571 19.0423 13.6642 19.0182C14.5096 18.9519 15.2093 18.8146 15.8462 18.5051C17.0054 17.9419 17.9417 17.0055 18.5049 15.8464C18.8144 15.2095 18.9517 14.5097 19.018 13.6643C19.0832 12.8339 19.0832 11.8021 19.0832 10.486V10.486V10.4538L19.0832 10.3433C19.0834 9.09379 19.0835 8.32484 18.8928 7.60257C18.7064 6.89621 18.3871 6.23184 17.952 5.64502C17.5071 5.04497 16.9066 4.56469 15.9308 3.78425L15.8445 3.71524L15.4659 3.41241L15.443 3.39406L15.443 3.39405C14.5706 2.69614 13.8839 2.14679 13.2917 1.74028C12.6865 1.32485 12.1386 1.02883 11.533 0.861296C10.5297 0.583751 9.46997 0.583751 8.46672 0.861296C7.86112 1.02883 7.31326 1.32485 6.70803 1.74028C6.11578 2.1468 5.42908 2.69616 4.55669 3.39408L4.55667 3.39409L4.53377 3.41241L4.15524 3.71524L4.06896 3.78425L4.06895 3.78425C3.09315 4.56469 2.49265 5.04497 2.04772 5.64502C1.6126 6.23184 1.29328 6.89621 1.10687 7.60257C0.916257 8.32485 0.916354 9.09379 0.916513 10.3433L0.916522 10.4538L0.916522 10.486C0.916518 11.8021 0.916514 12.8339 0.981673 13.6643C1.04801 14.5097 1.18527 15.2095 1.49477 15.8464C2.05801 17.0055 2.99433 17.9419 4.15347 18.5051C4.79039 18.8146 5.49013 18.9519 6.33553 19.0182C6.64261 19.0423 6.97724 19.0575 7.3436 19.067ZM11.7499 17.5806C11.36 17.5833 10.9305 17.5833 10.4536 17.5833H9.54608C9.06922 17.5833 8.63967 17.5833 8.24986 17.5806V12.5C8.24986 11.9994 8.25349 11.8586 8.27387 11.7562C8.37251 11.2603 8.76013 10.8727 9.25599 10.774C9.35848 10.7536 9.49925 10.75 9.99986 10.75C10.5005 10.75 10.6412 10.7536 10.7437 10.774C11.2396 10.8727 11.6272 11.2603 11.7258 11.7562C11.7462 11.8586 11.7499 11.9994 11.7499 12.5V17.5806Z" fill="#7F8995"/>
</g>
<defs>
<clipPath id="clip0_2138_4978">
<rect width="20" height="20" fill="white"/>
</clipPath>
</defs>
</svg>
