<svg width="20" height="20" viewBox="0 0 20 20" fill="none" xmlns="http://www.w3.org/2000/svg">
<g clip-path="url(#clip0_2138_5003)">
<path fill-rule="evenodd" clip-rule="evenodd" d="M8.86667 2.30699C9.6082 2.10185 10.3915 2.10185 11.133 2.30699C11.5165 2.41306 11.909 2.61057 12.4428 2.97698C12.9844 3.34875 13.6286 3.86348 14.5289 4.58371L14.9074 4.88654C15.9968 5.75803 16.4323 6.11387 16.7471 6.53844C17.0687 6.97218 17.3047 7.46324 17.4425 7.98533C17.5774 8.49638 17.5832 9.05873 17.5832 10.4538C17.5832 11.809 17.5827 12.7821 17.5226 13.547C17.4633 14.3036 17.3491 14.793 17.1558 15.1908C16.7395 16.0476 16.0474 16.7396 15.1907 17.156C14.7928 17.3493 14.3035 17.4634 13.5468 17.5228C12.782 17.5828 11.8088 17.5833 10.4536 17.5833H9.54608C8.19087 17.5833 7.21775 17.5828 6.45287 17.5228C5.69623 17.4634 5.20691 17.3493 4.80905 17.156C3.95229 16.7396 3.26023 16.0476 2.84392 15.1908C2.65059 14.793 2.53645 14.3036 2.47708 13.547C2.41706 12.7821 2.41652 11.809 2.41652 10.4538C2.41652 9.05872 2.42234 8.49638 2.55721 7.98533C2.695 7.46324 2.93101 6.97218 3.25262 6.53844C3.56744 6.11387 4.00292 5.75803 5.09228 4.88654L5.47082 4.58371C6.37111 3.86348 7.01527 3.34875 7.55689 2.97698C8.09072 2.61057 8.48326 2.41306 8.86667 2.30699ZM11.533 0.861296C10.5297 0.583751 9.46997 0.583751 8.46672 0.861296C7.86112 1.02883 7.31326 1.32485 6.70803 1.74028C6.11578 2.1468 5.42908 2.69616 4.55669 3.39408L4.55667 3.39409L4.53377 3.41241L4.15524 3.71524L4.06896 3.78425C3.09316 4.56469 2.49265 5.04497 2.04772 5.64502C1.6126 6.23184 1.29328 6.89621 1.10687 7.60257C0.916257 8.32485 0.916354 9.09379 0.916513 10.3433L0.916522 10.4538L0.916522 10.486C0.916518 11.8021 0.916514 12.8339 0.981673 13.6643C1.04801 14.5097 1.18527 15.2095 1.49477 15.8464C2.05801 17.0055 2.99433 17.9419 4.15347 18.5051C4.79039 18.8146 5.49013 18.9519 6.33553 19.0182C7.16593 19.0834 8.19777 19.0834 9.51385 19.0833H9.5139H9.54608H10.4536H10.4858H10.4859C11.8019 19.0834 12.8338 19.0834 13.6642 19.0182C14.5096 18.9519 15.2093 18.8146 15.8462 18.5051C17.0054 17.9419 17.9417 17.0055 18.5049 15.8464C18.8144 15.2095 18.9517 14.5097 19.018 13.6643C19.0832 12.8339 19.0832 11.8021 19.0832 10.486V10.486V10.4538L19.0832 10.3433C19.0834 9.09379 19.0835 8.32484 18.8928 7.60257C18.7064 6.89621 18.3871 6.23184 17.952 5.64502C17.5071 5.04497 16.9066 4.56469 15.9308 3.78425L15.8445 3.71524L15.4659 3.41241L15.443 3.39406L15.443 3.39405C14.5706 2.69614 13.8839 2.14679 13.2917 1.74028C12.6865 1.32485 12.1386 1.02883 11.533 0.861296ZM7.49986 12.5833C7.08564 12.5833 6.74986 12.9191 6.74986 13.3333C6.74986 13.7476 7.08564 14.0833 7.49986 14.0833H12.4999C12.9141 14.0833 13.2499 13.7476 13.2499 13.3333C13.2499 12.9191 12.9141 12.5833 12.4999 12.5833H7.49986Z" fill="#7F8995"/>
</g>
<defs>
<clipPath id="clip0_2138_5003">
<rect width="20" height="20" fill="white"/>
</clipPath>
</defs>
</svg>
