<svg width="20" height="20" viewBox="0 0 20 20" fill="none" xmlns="http://www.w3.org/2000/svg">
<path d="M6.07757 11.0774L5.54724 11.6077H5.54724L6.07757 11.0774ZM8.08942 13.0892L7.55909 13.6196L8.08942 13.0892ZM13.9228 11.0774L14.4531 11.6077H14.4531L13.9228 11.0774ZM5.00016 4.08331H15.0002V2.58331H5.00016V4.08331ZM15.0002 15.9166H5.00016V17.4166H15.0002V15.9166ZM5.00016 15.9166C4.4939 15.9166 4.0835 15.5062 4.0835 15H2.5835C2.5835 16.3347 3.66547 17.4166 5.00016 17.4166V15.9166ZM15.9168 15C15.9168 15.5062 15.5064 15.9166 15.0002 15.9166V17.4166C16.3349 17.4166 17.4168 16.3347 17.4168 15H15.9168ZM15.0002 4.08331C15.5064 4.08331 15.9168 4.49372 15.9168 4.99998H17.4168C17.4168 3.66529 16.3349 2.58331 15.0002 2.58331V4.08331ZM5.00016 2.58331C3.66547 2.58331 2.5835 3.66529 2.5835 4.99998H4.0835C4.0835 4.49372 4.4939 4.08331 5.00016 4.08331V2.58331ZM5.54724 11.6077L7.55909 13.6196L8.61975 12.5589L6.6079 10.5471L5.54724 11.6077ZM8.67867 14.0833H11.3217V12.5833H8.67867V14.0833ZM12.4412 13.6196L14.4531 11.6077L13.3924 10.5471L11.3806 12.5589L12.4412 13.6196ZM14.4531 11.6077C14.4687 11.5921 14.4899 11.5833 14.512 11.5833V10.0833C14.0921 10.0833 13.6894 10.2501 13.3924 10.5471L14.4531 11.6077ZM11.3217 14.0833C11.7416 14.0833 12.1443 13.9165 12.4412 13.6196L11.3806 12.5589C11.3649 12.5745 11.3438 12.5833 11.3217 12.5833V14.0833ZM7.55909 13.6196C7.85602 13.9165 8.25875 14.0833 8.67867 14.0833V12.5833C8.65657 12.5833 8.63538 12.5745 8.61975 12.5589L7.55909 13.6196ZM5.48832 11.5833C5.51042 11.5833 5.53162 11.5921 5.54724 11.6077L6.6079 10.5471C6.31097 10.2501 5.90824 10.0833 5.48832 10.0833V11.5833ZM15.9168 4.99998V10.8333H17.4168V4.99998H15.9168ZM15.9168 10.8333V15H17.4168V10.8333H15.9168ZM14.512 11.5833H16.6668V10.0833H14.512V11.5833ZM4.0835 15V10.8333H2.5835V15H4.0835ZM4.0835 10.8333V4.99998H2.5835V10.8333H4.0835ZM5.48832 10.0833H3.3335V11.5833H5.48832V10.0833Z" fill="#7F8995"/>
</svg>
