<svg width="20" height="20" viewBox="0 0 20 20" fill="none" xmlns="http://www.w3.org/2000/svg">
<path opacity="0.12" d="M18.1814 12.2736L18.3332 11.6667H15.6689C15.2483 11.6667 15.038 11.6667 14.843 11.7059C14.4571 11.7834 14.1026 11.9731 13.824 12.2512C13.6832 12.3917 13.5666 12.5667 13.3333 12.9167C13.1 13.2666 12.9833 13.4416 12.8425 13.5822C12.5639 13.8603 12.2095 14.0499 11.8236 14.1275C11.6285 14.1667 11.4182 14.1667 10.9976 14.1667H9.00225C8.58165 14.1667 8.37135 14.1667 8.1763 14.1275C7.7904 14.0499 7.43596 13.8603 7.15738 13.5822C7.01657 13.4416 6.89991 13.2666 6.66661 12.9167C6.4333 12.5667 6.31665 12.3917 6.17584 12.2512C5.89726 11.9731 5.54282 11.7834 5.15692 11.7059C4.96186 11.6667 4.75156 11.6667 4.33096 11.6667H1.6665L1.81824 12.2736C2.35991 14.4403 2.63074 15.5236 3.23472 16.3302C3.76763 17.0419 4.48066 17.5987 5.30035 17.943C6.22937 18.3334 7.34604 18.3334 9.57938 18.3334H10.4203C12.6536 18.3334 13.7703 18.3334 14.6993 17.943C15.519 17.5987 16.232 17.0419 16.765 16.3302C17.3689 15.5236 17.6398 14.4403 18.1814 12.2736Z" fill="#7F8995"/>
<path fill-rule="evenodd" clip-rule="evenodd" d="M9.84457 0.916642L9.99994 0.916659L10.1553 0.916642C11.8422 0.916368 12.8762 0.9162 13.7755 1.22106C15.0072 1.63861 16.0609 2.46136 16.7647 3.55501C17.2786 4.35352 17.5288 5.35521 17.937 6.98911L17.937 6.98913L17.9746 7.13948L18.3367 8.58788C18.842 10.6093 18.842 12.724 18.3366 14.7454C17.6993 17.2948 15.4086 19.0833 12.7808 19.0833H7.21895C4.59113 19.0833 2.30053 17.2949 1.6632 14.7455C1.15783 12.7241 1.15784 10.6093 1.66323 8.5878L2.02538 7.13927L2.06295 6.98892C2.47115 5.35508 2.72141 4.35342 3.23527 3.55494C3.93907 2.46131 4.99282 1.63858 6.2245 1.22105C7.12377 0.9162 8.15776 0.916368 9.84457 0.916642ZM9.99994 2.41666C8.10743 2.41666 7.3411 2.42637 6.70607 2.64164C5.7957 2.95025 5.01684 3.55836 4.49664 4.36669C4.13375 4.93058 3.93882 5.67026 3.48059 7.50309L3.11844 8.95162C2.95673 9.59842 2.8537 10.2561 2.80934 10.9167H4.33089L4.39394 10.9166H4.39396C4.75309 10.9165 5.03473 10.9163 5.3046 10.9706C5.83521 11.0772 6.32257 11.338 6.70562 11.7204C6.90044 11.9148 7.05655 12.1492 7.25562 12.4482L7.29057 12.5006C7.54107 12.8764 7.61162 12.9759 7.68716 13.0513C7.86127 13.2251 8.08279 13.3437 8.32398 13.3922C8.42862 13.4132 8.55059 13.4167 9.00218 13.4167H10.9976C11.4492 13.4167 11.5711 13.4132 11.6758 13.3922C11.9169 13.3437 12.1385 13.2251 12.3126 13.0513C12.3881 12.9759 12.4587 12.8764 12.7092 12.5006L12.7441 12.4482C12.9432 12.1492 13.0993 11.9148 13.2941 11.7204C13.6772 11.338 14.1645 11.0772 14.6951 10.9706C14.965 10.9163 15.2466 10.9165 15.6058 10.9166H15.6058L15.6688 10.9167H17.1905C17.1461 10.2561 17.0431 9.59845 16.8814 8.95167L16.5194 7.50326C16.0611 5.67036 15.8662 4.93065 15.5033 4.36675C14.9832 3.5584 14.2043 2.95027 13.2939 2.64165C12.6589 2.42637 11.8925 2.41666 9.99994 2.41666ZM17.1905 12.4167H15.6688C15.2173 12.4167 15.0953 12.4201 14.9906 12.4412C14.7495 12.4896 14.5279 12.6082 14.3538 12.782C14.2783 12.8574 14.2077 12.9569 13.9572 13.3327L13.9223 13.3851C13.7232 13.6841 13.5671 13.9185 13.3723 14.113C12.9892 14.4953 12.5019 14.7561 11.9713 14.8628C11.7014 14.917 11.4198 14.9169 11.0606 14.9167H11.0606L10.9976 14.9167H9.00218L8.93913 14.9167H8.93911C8.57998 14.9169 8.29835 14.917 8.02847 14.8628C7.49786 14.7561 7.01051 14.4953 6.62746 14.113C6.43264 13.9185 6.27653 13.6841 6.07746 13.3852L6.0425 13.3327C5.792 12.9569 5.72146 12.8574 5.64592 12.782C5.47181 12.6082 5.25028 12.4896 5.00909 12.4412C4.90445 12.4201 4.78249 12.4167 4.33089 12.4167H2.80933C2.85368 13.0773 2.95671 13.7349 3.11841 14.3817C3.58881 16.2633 5.27943 17.5833 7.21895 17.5833H12.7808C14.7203 17.5833 16.411 16.2633 16.8814 14.3816C17.0431 13.7349 17.1461 13.0772 17.1905 12.4167ZM7.5 5.08333C7.08578 5.08333 6.75 5.41911 6.75 5.83333C6.75 6.24754 7.08578 6.58333 7.5 6.58333H12.5C12.9142 6.58333 13.25 6.24754 13.25 5.83333C13.25 5.41911 12.9142 5.08333 12.5 5.08333H7.5ZM8.33333 8.41666C7.91912 8.41666 7.58333 8.75244 7.58333 9.16666C7.58333 9.58087 7.91912 9.91666 8.33333 9.91666H11.6667C12.0809 9.91666 12.4167 9.58087 12.4167 9.16666C12.4167 8.75244 12.0809 8.41666 11.6667 8.41666H8.33333Z" fill="#7F8995"/>
</svg>
