<svg width="24" height="24" viewBox="0 0 24 24" fill="none" xmlns="http://www.w3.org/2000/svg">
<path d="M12 12H12.75C12.75 11.5858 12.4142 11.25 12 11.25V12ZM12 16H11.25C11.25 16.4142 11.5858 16.75 12 16.75V16ZM13 16.75C13.4142 16.75 13.75 16.4142 13.75 16C13.75 15.5858 13.4142 15.25 13 15.25V16.75ZM11 11.25C10.5858 11.25 10.25 11.5858 10.25 12C10.25 12.4142 10.5858 12.75 11 12.75V11.25ZM12 7.25C11.5858 7.25 11.25 7.58579 11.25 8C11.25 8.41421 11.5858 8.75 12 8.75V7.25ZM12.01 8.75C12.4242 8.75 12.76 8.41421 12.76 8C12.76 7.58579 12.4242 7.25 12.01 7.25V8.75ZM11.25 12V16H12.75V12H11.25ZM12 16.75H13V15.25H12V16.75ZM12 11.25H11V12.75H12V11.25ZM20.25 12C20.25 16.5563 16.5563 20.25 12 20.25V21.75C17.3848 21.75 21.75 17.3848 21.75 12H20.25ZM12 20.25C7.44365 20.25 3.75 16.5563 3.75 12H2.25C2.25 17.3848 6.61522 21.75 12 21.75V20.25ZM3.75 12C3.75 7.44365 7.44365 3.75 12 3.75V2.25C6.61522 2.25 2.25 6.61522 2.25 12H3.75ZM12 3.75C16.5563 3.75 20.25 7.44365 20.25 12H21.75C21.75 6.61522 17.3848 2.25 12 2.25V3.75ZM12 8.75H12.01V7.25H12V8.75Z" fill="url(#paint0_linear_2138_5443)"/>
<defs>
<linearGradient id="paint0_linear_2138_5443" x1="3.01059" y1="11.9991" x2="21.0001" y2="11.9991" gradientUnits="userSpaceOnUse">
<stop stop-color="#FC6060"/>
<stop offset="0.333333" stop-color="#C160FC"/>
<stop offset="0.692708" stop-color="#7B60E8"/>
<stop offset="1" stop-color="#3F3CFF"/>
</linearGradient>
</defs>
</svg>
