<svg width="25" height="25" viewBox="0 0 25 25" fill="none" xmlns="http://www.w3.org/2000/svg">
<path d="M13.1298 23.3102C13.1298 23.3102 20.1975 9.80287 20.1741 9.7862C20.197 9.80287 12.5855 9.77422 12.5621 9.75807C12.5855 9.7737 12.4996 1.33203 12.4996 1.33203C12.4996 1.33203 11.2116 1.36068 11.1892 1.34453C11.2116 1.36016 4.37253 15.0112 4.34961 14.9956C4.37253 15.0112 11.2116 14.9826 11.1892 14.9664C11.2116 14.982 11.6699 23.1383 11.6475 23.1227C11.6699 23.1383 13.1293 23.3102 13.1293 23.3102H13.1298Z" fill="white"/>
<path d="M12.5 0C5.60573 0 0 5.60573 0 12.5C0 19.3943 5.60573 25 12.5 25C19.3943 25 25 19.3943 25 12.5C25 5.60573 19.3943 0 12.5 0ZM11.8557 14.5755H5.63021L11.8552 2.45729V14.5755H11.8557ZM13.1203 22.5193V10.401H19.3469L13.1198 22.5187L13.1203 22.5193Z" fill="#00BE28"/>
</svg>
