<svg width="20" height="20" viewBox="0 0 20 20" fill="none" xmlns="http://www.w3.org/2000/svg">
<path opacity="0.12" fill-rule="evenodd" clip-rule="evenodd" d="M9.99984 18.3334C14.6022 18.3334 18.3332 14.6024 18.3332 10C18.3332 5.39765 14.6022 1.66669 9.99984 1.66669C5.39746 1.66669 1.6665 5.39765 1.6665 10C1.6665 14.6024 5.39746 18.3334 9.99984 18.3334ZM9.99984 13.3334C11.8408 13.3334 13.3332 11.841 13.3332 10C13.3332 8.15907 11.8408 6.66669 9.99984 6.66669C8.15889 6.66669 6.6665 8.15907 6.6665 10C6.6665 11.841 8.15889 13.3334 9.99984 13.3334Z" fill="#B8C1CC"/>
<path fill-rule="evenodd" clip-rule="evenodd" d="M7.69166 6.63118L5.19404 4.13357C6.50265 3.0601 8.17556 2.41669 9.99984 2.41669C11.8241 2.41669 13.497 3.0601 14.8056 4.13357L12.308 6.63118C11.6514 6.18045 10.8564 5.91669 9.99984 5.91669C9.14324 5.91669 8.34826 6.18045 7.69166 6.63118ZM6.631 7.69184L4.13338 5.19423C3.05992 6.50283 2.4165 8.17575 2.4165 10C2.4165 11.8243 3.05992 13.4972 4.13338 14.8058L6.631 12.3082C6.18026 11.6516 5.9165 10.8566 5.9165 10C5.9165 9.14343 6.18026 8.34844 6.631 7.69184ZM7.69166 13.3689L5.19404 15.8665C6.50265 16.9399 8.17556 17.5834 9.99984 17.5834C11.8241 17.5834 13.497 16.9399 14.8056 15.8665L12.308 13.3689C11.6514 13.8196 10.8564 14.0834 9.99984 14.0834C9.14324 14.0834 8.34826 13.8196 7.69166 13.3689ZM13.3687 12.3082L15.8663 14.8058C16.9398 13.4972 17.5832 11.8243 17.5832 10C17.5832 8.17575 16.9398 6.50283 15.8663 5.19423L13.3687 7.69184C13.8194 8.34844 14.0832 9.14343 14.0832 10C14.0832 10.8566 13.8194 11.6516 13.3687 12.3082ZM9.99984 0.916687C7.49175 0.916687 5.21989 1.93419 3.57695 3.57713C1.93401 5.22007 0.916504 7.49193 0.916504 10C0.916504 12.5081 1.93401 14.78 3.57695 16.4229C5.21989 18.0658 7.49175 19.0834 9.99984 19.0834C12.5079 19.0834 14.7798 18.0658 16.4227 16.4229C18.0657 14.78 19.0832 12.5081 19.0832 10C19.0832 7.49193 18.0657 5.22007 16.4227 3.57713C14.7798 1.9342 12.5079 0.916687 9.99984 0.916687ZM7.4165 10C7.4165 8.57328 8.5731 7.41669 9.99984 7.41669C11.4266 7.41669 12.5832 8.57328 12.5832 10C12.5832 11.4268 11.4266 12.5834 9.99984 12.5834C8.5731 12.5834 7.4165 11.4268 7.4165 10Z" fill="#7F8995"/>
</svg>
