<svg width="20" height="20" viewBox="0 0 20 20" fill="none" xmlns="http://www.w3.org/2000/svg">
<rect opacity="0.12" x="1.6665" y="1.66666" width="16.6667" height="16.6667" rx="5" fill="#7F8995"/>
<path fill-rule="evenodd" clip-rule="evenodd" d="M9.63294 0.916656H9.6665H10.3332H10.3667C11.7384 0.916652 12.8139 0.916648 13.6782 0.987268C14.5584 1.05918 15.2855 1.20804 15.9436 1.54337C17.0255 2.09464 17.9052 2.97428 18.4565 4.05621C18.7918 4.71434 18.9406 5.44145 19.0126 6.32159C19.0832 7.18592 19.0832 8.26132 19.0832 9.63298V9.63303V9.63308V9.66666V10.3333V10.3669V10.3669V10.367C19.0832 11.7387 19.0832 12.8141 19.0126 13.6784C18.9406 14.5585 18.7918 15.2856 18.4565 15.9438C17.9052 17.0257 17.0255 17.9053 15.9436 18.4566C15.2855 18.7919 14.5584 18.9408 13.6782 19.0127C12.8139 19.0833 11.7385 19.0833 10.3668 19.0833H10.3668H10.3668H10.3332H9.66651H9.63293H9.63288H9.63283C8.26117 19.0833 7.18577 19.0833 6.32144 19.0127C5.4413 18.9408 4.71419 18.7919 4.05606 18.4566C2.97413 17.9053 2.09449 17.0257 1.54322 15.9438C1.20788 15.2856 1.05903 14.5585 0.987116 13.6784C0.916496 12.814 0.916499 11.7386 0.916504 10.3669V10.3333V9.66666V9.6331C0.916499 8.26138 0.916496 7.18594 0.987116 6.32159C1.05903 5.44145 1.20788 4.71434 1.54322 4.05621C2.09449 2.97428 2.97413 2.09464 4.05606 1.54337C4.71419 1.20804 5.4413 1.05918 6.32144 0.987268C7.18579 0.916648 8.26122 0.916652 9.63294 0.916656ZM6.44359 2.48229C5.65621 2.54662 5.14847 2.67025 4.73704 2.87988C3.93736 3.28734 3.28719 3.93751 2.87973 4.7372C2.67009 5.14863 2.54647 5.65636 2.48213 6.44374C2.41709 7.23988 2.4165 8.25415 2.4165 9.66666V10.3333C2.4165 11.7458 2.41709 12.7601 2.48213 13.5562C2.54647 14.3436 2.67009 14.8514 2.87973 15.2628C3.28719 16.0625 3.93736 16.7126 4.73704 17.1201C5.14847 17.3297 5.65621 17.4534 6.44359 17.5177C7.23973 17.5827 8.254 17.5833 9.66651 17.5833H10.3332C11.7457 17.5833 12.76 17.5827 13.5561 17.5177C14.3435 17.4534 14.8512 17.3297 15.2626 17.1201C16.0623 16.7126 16.7125 16.0625 17.1199 15.2628C17.3296 14.8514 17.4532 14.3436 17.5175 13.5562C17.5826 12.7601 17.5832 11.7458 17.5832 10.3333V9.66666C17.5832 8.25415 17.5826 7.23987 17.5175 6.44374C17.4532 5.65636 17.3296 5.14863 17.1199 4.7372C16.7125 3.93751 16.0623 3.28734 15.2626 2.87988C14.8512 2.67025 14.3435 2.54662 13.5561 2.48229C12.76 2.41724 11.7457 2.41666 10.3332 2.41666H9.6665C8.254 2.41666 7.23972 2.41724 6.44359 2.48229ZM9.86502 9.63401C9.15328 8.89976 8.00929 8.89976 7.29756 9.63401L6.35606 10.6053C5.54776 11.4392 5.54776 12.8005 6.35606 13.6344C7.15166 14.4552 8.43162 14.4552 9.22723 13.6344L9.62205 13.2271C9.91035 12.9297 10.3852 12.9223 10.6826 13.2106C10.98 13.4989 10.9874 13.9737 10.6991 14.2711L10.3043 14.6784C8.91934 16.1072 6.66395 16.1072 5.27902 14.6784C3.90678 13.2628 3.90678 10.9769 5.27902 9.56128L6.22051 8.59C7.52158 7.24776 9.64099 7.24777 10.9421 8.59L11.0939 8.74666C11.3822 9.04408 11.3748 9.51889 11.0774 9.80719C10.78 10.0955 10.3052 10.0881 10.0169 9.79067L9.86502 9.63401ZM14.7207 5.32155C13.3357 3.8928 11.0803 3.8928 9.6954 5.32155L9.30058 5.72887C9.01228 6.02629 9.01968 6.5011 9.31709 6.7894C9.61451 7.0777 10.0893 7.0703 10.3776 6.77288L10.7724 6.36557C11.568 5.5448 12.848 5.5448 13.6436 6.36557C14.4519 7.19944 14.4519 8.56081 13.6436 9.39468L12.7021 10.366C11.9904 11.1002 10.8464 11.1002 10.1347 10.366L9.9828 10.2093C9.69451 9.91189 9.21969 9.90449 8.92227 10.1928C8.62485 10.4811 8.61746 10.9559 8.90576 11.2533L9.05761 11.41C10.3587 12.7522 12.4781 12.7522 13.7792 11.41L14.7207 10.4387C16.0929 9.02304 16.0929 6.73721 14.7207 5.32155Z" fill="#7F8995"/>
</svg>
