<svg width="20" height="20" viewBox="0 0 20 20" fill="none" xmlns="http://www.w3.org/2000/svg">
<path fill-rule="evenodd" clip-rule="evenodd" d="M5.53017 2.197C5.82306 1.90411 5.82306 1.42923 5.53017 1.13634C5.23727 0.843448 4.7624 0.843449 4.46951 1.13634L2.49984 3.10601L2.19683 2.80301C1.90394 2.51012 1.42907 2.51012 1.13617 2.80301C0.843281 3.0959 0.843281 3.57078 1.13617 3.86367L1.96951 4.697C2.11016 4.83765 2.30093 4.91667 2.49984 4.91667C2.69875 4.91667 2.88952 4.83765 3.03017 4.697L5.53017 2.197ZM8.4165 3.33334C8.4165 2.91912 8.75229 2.58334 9.1665 2.58334L18.3332 2.58334C18.7474 2.58334 19.0832 2.91912 19.0832 3.33334C19.0832 3.74755 18.7474 4.08334 18.3332 4.08334L9.1665 4.08334C8.75229 4.08334 8.4165 3.74755 8.4165 3.33334ZM9.1665 9.25C8.75229 9.25 8.4165 9.58579 8.4165 10C8.4165 10.4142 8.75229 10.75 9.1665 10.75L18.3332 10.75C18.7474 10.75 19.0832 10.4142 19.0832 10C19.0832 9.58579 18.7474 9.25 18.3332 9.25L9.1665 9.25ZM9.16651 15.9167C8.75229 15.9167 8.41651 16.2525 8.41651 16.6667C8.41651 17.0809 8.75229 17.4167 9.16651 17.4167L18.3332 17.4167C18.7474 17.4167 19.0832 17.0809 19.0832 16.6667C19.0832 16.2525 18.7474 15.9167 18.3332 15.9167L9.16651 15.9167ZM5.53017 7.80301C5.82306 8.0959 5.82306 8.57078 5.53017 8.86367L3.03017 11.3637C2.73728 11.6566 2.2624 11.6566 1.96951 11.3637L1.13618 10.5303C0.843282 10.2374 0.843282 9.76257 1.13617 9.46968C1.42907 9.17678 1.90394 9.17678 2.19684 9.46968L2.49984 9.77268L4.46951 7.80301C4.7624 7.51012 5.23728 7.51012 5.53017 7.80301ZM5.53017 15.5303C5.82306 15.2374 5.82306 14.7626 5.53017 14.4697C5.23728 14.1768 4.7624 14.1768 4.46951 14.4697L2.49984 16.4393L2.19684 16.1363C1.90394 15.8434 1.42907 15.8434 1.13618 16.1363C0.843283 16.4292 0.843283 16.9041 1.13618 17.197L1.96951 18.0303C2.2624 18.3232 2.73728 18.3232 3.03017 18.0303L5.53017 15.5303Z" fill="#7F8995"/>
</svg>
