<svg width="20" height="20" viewBox="0 0 20 20" fill="none" xmlns="http://www.w3.org/2000/svg">
<rect opacity="0.12" x="1.6665" y="1.66669" width="16.6667" height="16.6667" rx="6" fill="#B8C1CC"/>
<path fill-rule="evenodd" clip-rule="evenodd" d="M9.83598 0.916637L9.99986 0.916649L10.1637 0.916637C12.1785 0.916417 13.371 0.916287 14.363 1.22906C16.4633 1.8913 18.1085 3.53653 18.7708 5.63689C19.0836 6.62887 19.0834 7.82134 19.0832 9.83609L19.0832 9.99998L19.0832 10.1639C19.0834 12.1786 19.0836 13.3711 18.7708 14.3631C18.1085 16.4634 16.4633 18.1087 14.363 18.7709C13.371 19.0837 12.1785 19.0835 10.1638 19.0833L9.99986 19.0833L9.83597 19.0833C7.82122 19.0835 6.62875 19.0837 5.63676 18.7709C3.53641 18.1087 1.89118 16.4634 1.22894 14.3631C0.916165 13.3711 0.916295 12.1786 0.916515 10.1639L0.916527 9.99998L0.916515 9.83611C0.916295 7.82134 0.916165 6.62887 1.22894 5.63689C1.89118 3.53653 3.53641 1.8913 5.63676 1.22906C6.62875 0.916287 7.82122 0.916417 9.83598 0.916637ZM9.99986 2.41665C7.77197 2.41665 6.83072 2.4254 6.08782 2.65964C4.45421 3.17471 3.17459 4.45433 2.65951 6.08794C2.42528 6.83085 2.41653 7.77209 2.41653 9.99998C2.41653 12.2279 2.42528 13.1691 2.65951 13.912C3.17459 15.5456 4.45421 16.8253 6.08782 17.3403C6.83072 17.5746 7.77197 17.5833 9.99986 17.5833C12.2278 17.5833 13.169 17.5746 13.9119 17.3403C15.5455 16.8253 16.8251 15.5456 17.3402 13.912C17.5744 13.1691 17.5832 12.2279 17.5832 9.99998C17.5832 7.77209 17.5744 6.83085 17.3402 6.08794C16.8251 4.45433 15.5455 3.17471 13.9119 2.65964C13.169 2.4254 12.2278 2.41665 9.99986 2.41665ZM13.8494 6.15053C14.1344 6.43557 14.1344 6.89773 13.8494 7.18277L12.7792 8.25292C12.4942 8.53797 12.032 8.53797 11.747 8.25292C11.4619 7.96787 11.4619 7.50572 11.747 7.22067L12.8171 6.15053C13.1022 5.86548 13.5643 5.86548 13.8494 6.15053ZM8.25276 11.7472C8.53781 12.0322 8.53781 12.4944 8.25276 12.7794L7.1827 13.8495C6.89765 14.1345 6.4355 14.1345 6.15046 13.8495C5.86541 13.5644 5.86541 13.1023 6.15046 12.8172L7.22052 11.7472C7.50556 11.4621 7.96772 11.4621 8.25276 11.7472ZM7.18268 6.15045C6.89763 5.8654 6.43547 5.8654 6.15042 6.15045C5.86537 6.4355 5.86537 6.89766 6.15042 7.18271L7.22058 8.25288C7.50563 8.53793 7.96779 8.53793 8.25284 8.25288C8.53789 7.96783 8.53789 7.50567 8.25284 7.22062L7.18268 6.15045ZM12.7794 11.7472C12.4943 11.4621 12.0322 11.4621 11.7471 11.7472C11.4621 12.0322 11.4621 12.4944 11.7471 12.7794L12.8172 13.8495C13.1023 14.1346 13.5644 14.1346 13.8495 13.8495C14.1345 13.5645 14.1345 13.1023 13.8495 12.8172L12.7794 11.7472ZM4.22229 9.99997C4.22229 10.4294 4.57044 10.7776 4.9999 10.7776H6.67147C7.10093 10.7776 7.44908 10.4294 7.44908 9.99997C7.44908 9.5705 7.10093 9.22235 6.67147 9.22235L4.9999 9.22235C4.57044 9.22235 4.22229 9.5705 4.22229 9.99997ZM12.5505 9.99997C12.5505 10.4294 12.8987 10.7776 13.3281 10.7776H14.9998C15.4293 10.7776 15.7775 10.4294 15.7775 9.99997C15.7775 9.5705 15.4293 9.22235 14.9998 9.22235H13.3281C12.8987 9.22235 12.5505 9.5705 12.5505 9.99997ZM9.22223 14.9999C9.22223 15.4294 9.57038 15.7775 9.99984 15.7775C10.4293 15.7775 10.7775 15.4294 10.7775 14.9999V13.3284C10.7775 12.8989 10.4293 12.5508 9.99984 12.5508C9.57038 12.5508 9.22223 12.8989 9.22223 13.3284V14.9999ZM9.22223 6.67169C9.22223 7.10115 9.57038 7.4493 9.99984 7.4493C10.4293 7.4493 10.7775 7.10115 10.7775 6.67169V4.99999C10.7775 4.57053 10.4293 4.22238 9.99984 4.22238C9.57038 4.22238 9.22223 4.57053 9.22223 4.99999V6.67169Z" fill="#7F8995"/>
</svg>
