<svg width="20" height="20" viewBox="0 0 20 20" fill="none" xmlns="http://www.w3.org/2000/svg">
<path opacity="0.12" fill-rule="evenodd" clip-rule="evenodd" d="M11.6316 3.52433L8.33333 5.83311L8.33333 12.4998L11.6316 14.8086C13.2611 15.9492 14.0759 16.5196 14.7541 16.4899C15.3447 16.464 15.8936 16.1783 16.2534 15.7093C16.6667 15.1707 16.6667 14.1761 16.6667 12.187V6.14588C16.6667 4.15678 16.6667 3.16223 16.2534 2.62363C15.8936 2.15463 15.3447 1.86884 14.7541 1.843C14.0759 1.81332 13.2611 2.38366 11.6316 3.52433ZM7.5 12.5001H5L5 16.2501C5 16.9404 5.55964 17.5001 6.25 17.5001C6.94036 17.5001 7.5 16.9404 7.5 16.2501L7.5 12.5001Z" fill="#B8C1CC"/>
<path fill-rule="evenodd" clip-rule="evenodd" d="M12.0615 4.13877C12.8885 3.55988 13.4665 3.15621 13.9218 2.89586C14.3849 2.63098 14.6027 2.58712 14.7211 2.5923C15.0903 2.60845 15.4333 2.78707 15.6582 3.08019C15.7304 3.17427 15.8194 3.37784 15.868 3.90916C15.9158 4.43143 15.9165 5.13642 15.9165 6.14589V6.66656L15.9165 11.6666V12.187C15.9165 13.1965 15.9158 13.9015 15.868 14.4238C15.8194 14.9551 15.7304 15.1586 15.6582 15.2527C15.4333 15.5459 15.0903 15.7245 14.7212 15.7406C14.6027 15.7458 14.3849 15.7019 13.9218 15.4371C13.4665 15.1767 12.8885 14.773 12.0615 14.1941L9.08317 12.1093L9.08317 6.22362L12.0615 4.13877ZM17.4165 12.3296C17.4164 13.2433 17.4145 13.9832 17.3617 14.5604C17.307 15.1583 17.1894 15.7213 16.8483 16.1658C16.3535 16.8107 15.5988 17.2037 14.7867 17.2392C14.227 17.2637 13.6983 17.0372 13.1771 16.7392C12.6551 16.4406 12.021 15.9968 11.2332 15.4453L11.2332 15.4453L11.2331 15.4453L11.2331 15.4452L11.2013 15.423L8.24984 13.357L8.24984 16.2501C8.24984 17.3547 7.35441 18.2501 6.24984 18.2501C5.14527 18.2501 4.24984 17.3547 4.24984 16.2501L4.24984 13.1813C2.35289 12.8291 0.916504 11.1656 0.916504 9.16667C0.916503 6.9115 2.74467 5.08333 4.99984 5.08333L8.09646 5.08333L11.2013 2.90993L11.2331 2.88767C12.0209 2.33621 12.655 1.8923 13.1771 1.59375C13.6983 1.2957 14.227 1.06924 14.7867 1.09373C15.5988 1.12927 16.3535 1.52222 16.8483 2.1671C17.1894 2.61162 17.307 3.17463 17.3617 3.7725C17.4145 4.34974 17.4164 5.08973 17.4165 6.00353C18.8499 6.34211 19.9165 7.62977 19.9165 9.16656C19.9165 10.7034 18.8499 11.991 17.4165 12.3296ZM17.4165 10.7482C18.0077 10.4673 18.4165 9.86466 18.4165 9.16656C18.4165 8.46846 18.0077 7.86583 17.4165 7.58497V10.7482ZM7.58317 6.58333L4.99984 6.58333C3.5731 6.58333 2.4165 7.73993 2.4165 9.16667C2.4165 10.5934 3.5731 11.75 4.99984 11.75L7.58317 11.75L7.58317 6.58333ZM5.74984 13.2501L5.74984 16.2501C5.74984 16.5262 5.9737 16.7501 6.24984 16.7501C6.52598 16.7501 6.74984 16.5262 6.74984 16.2501L6.74984 13.2501H5.74984Z" fill="#7F8995"/>
</svg>
