<svg width="15" height="16" viewBox="0 0 15 16" fill="none" xmlns="http://www.w3.org/2000/svg">
<path d="M0.303166 10.803C0.0102728 11.0959 0.0102728 11.5707 0.303166 11.8636C0.596059 12.1565 1.07093 12.1565 1.36383 11.8636L0.303166 10.803ZM4.65498 7.51182L5.18531 8.04215L4.65498 7.51182ZM7.01201 7.51182L7.54234 6.98149V6.98149L7.01201 7.51182ZM10.3032 11.8636C10.5961 12.1565 11.0709 12.1565 11.3638 11.8636C11.6567 11.5707 11.6567 11.0959 11.3638 10.803L10.3032 11.8636ZM8.6365 9.13632C8.34361 9.42921 8.34361 9.90408 8.6365 10.197C8.92939 10.4899 9.40427 10.4899 9.69716 10.197L8.6365 9.13632ZM12.8453 8.34516L12.315 8.87549L12.8453 8.34516ZM13.6365 10.197C13.9294 10.4899 14.4043 10.4899 14.6972 10.197C14.9901 9.90408 14.9901 9.42921 14.6972 9.13632L13.6365 10.197ZM9.16683 3.91665C8.75262 3.91665 8.41683 4.25243 8.41683 4.66665C8.41683 5.08086 8.75262 5.41665 9.16683 5.41665V3.91665ZM9.17516 5.41665C9.58938 5.41665 9.92516 5.08086 9.92516 4.66665C9.92516 4.25243 9.58938 3.91665 9.17516 3.91665V5.41665ZM2.50016 2.08331H12.5002V0.583313H2.50016V2.08331ZM13.4168 2.99998V13H14.9168V2.99998H13.4168ZM12.5002 13.9166H2.50016V15.4166H12.5002V13.9166ZM1.5835 13V2.99998H0.0834961V13H1.5835ZM2.50016 13.9166C1.9939 13.9166 1.5835 13.5062 1.5835 13H0.0834961C0.0834961 14.3347 1.16547 15.4166 2.50016 15.4166V13.9166ZM13.4168 13C13.4168 13.5062 13.0064 13.9166 12.5002 13.9166V15.4166C13.8349 15.4166 14.9168 14.3347 14.9168 13H13.4168ZM12.5002 2.08331C13.0064 2.08331 13.4168 2.49372 13.4168 2.99998H14.9168C14.9168 1.66529 13.8349 0.583313 12.5002 0.583313V2.08331ZM2.50016 0.583313C1.16547 0.583313 0.0834961 1.66529 0.0834961 2.99998H1.5835C1.5835 2.49372 1.9939 2.08331 2.50016 2.08331V0.583313ZM1.36383 11.8636L5.18531 8.04215L4.12465 6.98149L0.303166 10.803L1.36383 11.8636ZM6.48168 8.04215L10.3032 11.8636L11.3638 10.803L7.54234 6.98149L6.48168 8.04215ZM5.18531 8.04215C5.54329 7.68417 6.1237 7.68417 6.48168 8.04215L7.54234 6.98149C6.59857 6.03773 5.06842 6.03773 4.12465 6.98149L5.18531 8.04215ZM9.69716 10.197L11.0186 8.87549L9.95799 7.81483L8.6365 9.13632L9.69716 10.197ZM12.315 8.87549L13.6365 10.197L14.6972 9.13632L13.3757 7.81483L12.315 8.87549ZM11.0186 8.87549C11.3766 8.51751 11.957 8.51751 12.315 8.87549L13.3757 7.81483C12.4319 6.87106 10.9018 6.87106 9.95799 7.81483L11.0186 8.87549ZM9.16683 5.41665H9.17516V3.91665H9.16683V5.41665Z" fill="#7F8995"/>
</svg>
