<svg width="16" height="16" viewBox="0 0 16 16" fill="none" xmlns="http://www.w3.org/2000/svg">
<circle cx="8" cy="8" r="7" fill="white" stroke="#EAEDF0" stroke-width="2"/>
<path d="M8 15.0241C8 15.5631 8.43856 16.0062 8.97355 15.9406C10.7365 15.7245 12.3879 14.9258 13.6569 13.6569C15.1571 12.1566 16 10.1217 16 8C16 5.87827 15.1571 3.84344 13.6569 2.34315C12.3879 1.07417 10.7365 0.275533 8.97355 0.0594289C8.43856 -0.00615112 8 0.436941 8 0.975935V0.975935C8 1.51493 8.43977 1.94382 8.97176 2.03042C10.2156 2.2329 11.3741 2.82074 12.2767 3.72333C13.4109 4.85757 14.0481 6.39594 14.0481 8C14.0481 9.60406 13.4109 11.1424 12.2767 12.2767C11.3741 13.1793 10.2156 13.7671 8.97176 13.9696C8.43977 14.0562 8 14.4851 8 15.0241V15.0241Z" fill="url(#paint0_linear_1707_983)"/>
<defs>
<linearGradient id="paint0_linear_1707_983" x1="8" y1="16" x2="8" y2="0" gradientUnits="userSpaceOnUse">
<stop stop-color="#FC6060"/>
<stop offset="0.333333" stop-color="#C160FC"/>
<stop offset="0.692708" stop-color="#7B60E8"/>
<stop offset="1" stop-color="#3F3CFF"/>
</linearGradient>
</defs>
</svg>
