<svg width="34" height="34" viewBox="0 0 34 34" fill="none" xmlns="http://www.w3.org/2000/svg">
<circle cx="16.9707" cy="16.9995" r="11" stroke="#EAEDF0" stroke-width="2"/>
<path d="M22.8801 26.2773C23.1768 26.7431 23.7979 26.8834 24.2374 26.549C25.9781 25.2243 27.3291 23.4445 28.1353 21.3974C29.0642 19.0393 29.2225 16.4476 28.5877 13.994C27.9528 11.5403 26.5574 9.35064 24.6015 7.73887C22.9036 6.33975 20.859 5.43847 18.6942 5.12423C18.1477 5.04489 17.6725 5.46884 17.6389 6.0201L17.5825 6.94619C17.5489 7.49745 17.9703 7.96595 18.5145 8.05996C20.0617 8.32722 21.5191 8.99267 22.7396 9.99838C24.2183 11.2169 25.2732 12.8723 25.7532 14.7273C26.2331 16.5823 26.1134 18.5417 25.4112 20.3245C24.8317 21.7959 23.8799 23.0847 22.6565 24.0688C22.2262 24.4149 22.0849 25.029 22.3816 25.4948L22.8801 26.2773Z" fill="url(#paint0_linear_2175_3054)"/>
<defs>
<linearGradient id="paint0_linear_2175_3054" x1="25.509" y1="25.4312" x2="8.43139" y2="8.56835" gradientUnits="userSpaceOnUse">
<stop stop-color="#FC6060"/>
<stop offset="0.333333" stop-color="#C160FC"/>
<stop offset="0.692708" stop-color="#7B60E8"/>
<stop offset="1" stop-color="#3F3CFF"/>
</linearGradient>
</defs>
</svg>
