<svg width="24" height="24" viewBox="0 0 24 24" fill="none" xmlns="http://www.w3.org/2000/svg">
<circle cx="12" cy="12" r="11" fill="white" stroke="#EAEDF0" stroke-width="2"/>
<path d="M12 23C12 23.5523 12.4486 24.0043 12.9989 23.9584C15.8157 23.7232 18.4715 22.4991 20.4853 20.4853C22.7357 18.2348 24 15.1826 24 12C24 8.8174 22.7357 5.76516 20.4853 3.51472C18.4715 1.50094 15.8157 0.276808 12.9989 0.04162C12.4486 -0.00433407 12 0.447715 12 1L12 1.9278C12 2.48009 12.4491 2.9221 12.9981 2.98284C15.037 3.20846 16.9506 4.12054 18.415 5.58499C20.1164 7.28636 21.0722 9.5939 21.0722 12C21.0722 14.4061 20.1164 16.7136 18.415 18.415C16.9506 19.8795 15.037 20.7915 12.9981 21.0172C12.4491 21.0779 12 21.5199 12 22.0722L12 23Z" fill="url(#paint0_linear_2175_3318)"/>
<defs>
<linearGradient id="paint0_linear_2175_3318" x1="12" y1="24" x2="12" y2="0" gradientUnits="userSpaceOnUse">
<stop stop-color="#FC6060"/>
<stop offset="0.333333" stop-color="#C160FC"/>
<stop offset="0.692708" stop-color="#7B60E8"/>
<stop offset="1" stop-color="#3F3CFF"/>
</linearGradient>
</defs>
</svg>
