<svg width="120" height="24" viewBox="0 0 120 24" fill="none" xmlns="http://www.w3.org/2000/svg">
<path d="M22 10.0999C22.1 9.59994 21.7 8.99994 21.2 8.99994L15.5 8.19994L12.9 2.99994C12.8 2.79994 12.7 2.69994 12.5 2.59994C12 2.29994 11.4 2.49994 11.1 2.99994L8.6 8.19994L2.9 8.99994C2.6 8.99994 2.4 9.09994 2.3 9.29994C1.9 9.69994 1.9 10.2999 2.3 10.6999L6.4 14.6999L5.4 20.3999C5.4 20.5999 5.4 20.7999 5.5 20.9999C5.8 21.4999 6.4 21.6999 6.9 21.3999L12 18.6999L17.1 21.3999C17.2 21.4999 17.4 21.4999 17.6 21.4999C17.7 21.4999 17.7 21.4999 17.8 21.4999C18.3 21.3999 18.7 20.8999 18.6 20.2999L17.6 14.5999L21.7 10.5999C21.9 10.4999 22 10.2999 22 10.0999Z" fill="#FFBB29"/>
<path d="M46 10.0999C46.1 9.59994 45.7 8.99994 45.2 8.99994L39.5 8.19994L36.9 2.99994C36.8 2.79994 36.7 2.69994 36.5 2.59994C36 2.29994 35.4 2.49994 35.1 2.99994L32.6 8.19994L26.9 8.99994C26.6 8.99994 26.4 9.09994 26.3 9.29994C25.9 9.69994 25.9 10.2999 26.3 10.6999L30.4 14.6999L29.4 20.3999C29.4 20.5999 29.4 20.7999 29.5 20.9999C29.8 21.4999 30.4 21.6999 30.9 21.3999L36 18.6999L41.1 21.3999C41.2 21.4999 41.4 21.4999 41.6 21.4999C41.7 21.4999 41.7 21.4999 41.8 21.4999C42.3 21.3999 42.7 20.8999 42.6 20.2999L41.6 14.5999L45.7 10.5999C45.9 10.4999 46 10.2999 46 10.0999Z" fill="#FFBB29"/>
<path d="M70 10.0999C70.1 9.59994 69.7 8.99994 69.2 8.99994L63.5 8.19994L60.9 2.99994C60.8 2.79994 60.7 2.69994 60.5 2.59994C60 2.29994 59.4 2.49994 59.1 2.99994L56.6 8.19994L50.9 8.99994C50.6 8.99994 50.4 9.09994 50.3 9.29994C49.9 9.69994 49.9 10.2999 50.3 10.6999L54.4 14.6999L53.4 20.3999C53.4 20.5999 53.4 20.7999 53.5 20.9999C53.8 21.4999 54.4 21.6999 54.9 21.3999L60 18.6999L65.1 21.3999C65.2 21.4999 65.4 21.4999 65.6 21.4999C65.7 21.4999 65.7 21.4999 65.8 21.4999C66.3 21.3999 66.7 20.8999 66.6 20.2999L65.6 14.5999L69.7 10.5999C69.9 10.4999 70 10.2999 70 10.0999Z" fill="#FFBB29"/>
<path d="M94 10.0999C94.1 9.59994 93.7 8.99994 93.2 8.99994L87.5 8.19994L84.9 2.99994C84.8 2.79994 84.7 2.69994 84.5 2.59994C84 2.29994 83.4 2.49994 83.1 2.99994L80.6 8.19994L74.9 8.99994C74.6 8.99994 74.4 9.09994 74.3 9.29994C73.9 9.69994 73.9 10.2999 74.3 10.6999L78.4 14.6999L77.4 20.3999C77.4 20.5999 77.4 20.7999 77.5 20.9999C77.8 21.4999 78.4 21.6999 78.9 21.3999L84 18.6999L89.1 21.3999C89.2 21.4999 89.4 21.4999 89.6 21.4999C89.7 21.4999 89.7 21.4999 89.8 21.4999C90.3 21.3999 90.7 20.8999 90.6 20.2999L89.6 14.5999L93.7 10.5999C93.9 10.4999 94 10.2999 94 10.0999Z" fill="#FFBB29"/>
<path d="M118 10.0999C118.1 9.59994 117.7 8.99994 117.2 8.99994L111.5 8.19994L108.9 2.99994C108.8 2.79994 108.7 2.69994 108.5 2.59994C108 2.29994 107.4 2.49994 107.1 2.99994L104.6 8.19994L98.9 8.99994C98.6 8.99994 98.4 9.09994 98.3 9.29994C97.9 9.69994 97.9 10.2999 98.3 10.6999L102.4 14.6999L101.4 20.3999C101.4 20.5999 101.4 20.7999 101.5 20.9999C101.8 21.4999 102.4 21.6999 102.9 21.3999L108 18.6999L113.1 21.3999C113.2 21.4999 113.4 21.4999 113.6 21.4999C113.7 21.4999 113.7 21.4999 113.8 21.4999C114.3 21.3999 114.7 20.8999 114.6 20.2999L113.6 14.5999L117.7 10.5999C117.9 10.4999 118 10.2999 118 10.0999ZM111.8 13.5999C111.6 13.7999 111.5 14.1999 111.5 14.4999L112.2 18.6999L108.4 16.6999C108.3 16.5999 108.1 16.5999 107.9 16.5999V5.69994L109.8 9.49994C109.9 9.79994 110.2 9.99994 110.6 9.99994L114.8 10.5999L111.8 13.5999Z" fill="#FFBB29"/>
</svg>
