<svg width="24" height="28" viewBox="0 0 24 28" fill="none" xmlns="http://www.w3.org/2000/svg">
<path d="M8.96596 11.2428V10.2291C8.61407 10.1733 8.25866 10.1428 7.90242 10.1377C4.45356 10.1304 1.4002 12.3653 0.364506 15.655C-0.671188 18.9446 0.551329 22.5257 3.3822 24.4954C2.34412 23.3844 1.64977 21.9967 1.38299 20.4997C1.11621 19.0028 1.28839 17.4607 1.87875 16.0595C2.46911 14.6583 3.45241 13.4579 4.70997 12.6032C5.96753 11.7485 7.44558 11.2761 8.96573 11.2429L8.96596 11.2428Z" fill="#25F4EE"/>
<path d="M9.15623 22.7257C11.0845 22.723 12.6695 21.2039 12.754 19.2775V2.08654H15.8945C15.8304 1.72732 15.7998 1.36292 15.8032 0.998047L11.5075 0.998047V18.1724C11.4361 20.1086 9.84727 21.6423 7.90978 21.6454C7.33079 21.6405 6.76124 21.4982 6.24805 21.23C6.58066 21.6909 7.01747 22.0665 7.52286 22.3264C8.02825 22.5864 8.58792 22.7231 9.15623 22.7257ZM21.7606 7.91924V6.96373C20.6047 6.96419 19.4745 6.62312 18.5119 5.98337C19.3557 6.96441 20.4961 7.64397 21.7606 7.91924Z" fill="#25F4EE"/>
<path d="M18.5125 5.98335C17.5641 4.90349 17.0414 3.5153 17.0418 2.07812H15.8951C16.0432 2.87272 16.3517 3.6288 16.8017 4.30023C17.2517 4.97166 17.8338 5.54435 18.5125 5.98335ZM7.90212 14.4334C7.09788 14.4375 6.3181 14.7103 5.68673 15.2085C5.05537 15.7067 4.60867 16.4017 4.41765 17.1829C4.22662 17.9641 4.30225 18.7868 4.6325 19.5201C4.96275 20.2534 5.52866 20.8553 6.24027 21.23C5.8512 20.6928 5.61821 20.0585 5.56704 19.3972C5.51586 18.7359 5.6485 18.0733 5.95029 17.4826C6.25209 16.892 6.71129 16.3962 7.27716 16.0502C7.84304 15.7042 8.49356 15.5213 9.15685 15.5218C9.51744 15.5265 9.87552 15.5826 10.2203 15.6885V11.3176C9.8682 11.2648 9.51284 11.237 9.15685 11.2345H8.96565V14.558C8.61907 14.465 8.2608 14.4231 7.90212 14.4334Z" fill="#FE2C55"/>
<path d="M21.7621 7.91992V11.2435C19.6223 11.2393 17.5381 10.562 15.8047 9.30752V18.0401C15.7955 22.3976 12.2605 25.9252 7.90303 25.9252C6.2847 25.9281 4.70534 25.4288 3.38281 24.4961C4.46125 25.656 5.86401 26.4644 7.40838 26.8157C8.95274 27.1671 10.5671 27.0452 12.0412 26.466C13.5154 25.8868 14.7809 24.8771 15.673 23.5684C16.5651 22.2597 17.0424 20.7127 17.0428 19.1288V10.421C18.782 11.6672 20.8688 12.3357 23.0084 12.332V8.05256C22.5895 8.05131 22.1719 8.00687 21.7621 7.91992Z" fill="#FE2C55"/>
<path d="M15.8047 18.0394V9.30682C17.5433 10.5542 19.6305 11.2228 21.7703 11.2178V7.89437C20.5062 7.6274 19.3631 6.95668 18.5134 5.98335C17.8347 5.54435 17.2526 4.97166 16.8026 4.30023C16.3526 3.6288 16.0441 2.87272 15.896 2.07812H12.7554V19.2777C12.7249 20.0264 12.4618 20.7469 12.0029 21.3392C11.5439 21.9315 10.9119 22.3661 10.1946 22.5827C9.47727 22.7992 8.71031 22.7869 8.00029 22.5475C7.29028 22.3081 6.67247 21.8535 6.23273 21.2468C5.521 20.8721 4.95496 20.2703 4.62463 19.5369C4.2943 18.8035 4.21863 17.9808 4.40967 17.1995C4.6007 16.4182 5.04746 15.7232 5.67892 15.225C6.31037 14.7268 7.09026 14.454 7.89458 14.45C8.2553 14.4532 8.61361 14.5092 8.95811 14.6162V11.2926C7.4298 11.3185 5.94204 11.7886 4.67623 12.6454C3.41043 13.5022 2.42128 14.7089 1.82938 16.1182C1.23748 17.5274 1.06841 19.0785 1.34278 20.5822C1.61716 22.0859 2.32312 23.4773 3.37459 24.5867C4.71011 25.4887 6.29172 25.9559 7.90298 25.9245C12.2604 25.9245 15.7954 22.3969 15.8047 18.0394Z" fill="black"/>
</svg>
