<svg width="20" height="20" viewBox="0 0 20 20" fill="none" xmlns="http://www.w3.org/2000/svg">
<path opacity="0.12" d="M3.82428 12.5101L3.3335 4.16666H16.6668L16.176 12.5101V12.5101C16.0625 14.4402 16.0057 15.4053 15.6245 16.1521C15.2048 16.9742 14.5136 17.6259 13.6683 17.9966C12.9004 18.3333 11.9336 18.3333 10.0002 18.3333C8.06668 18.3333 7.09994 18.3333 6.33203 17.9966C5.48668 17.6259 4.79556 16.9742 4.37585 16.1521C3.99459 15.4053 3.93782 14.4402 3.82428 12.5101Z" fill="#7F8995"/>
<path fill-rule="evenodd" clip-rule="evenodd" d="M9.22966 0.916656L9.12086 0.916548C8.60826 0.915783 8.15835 0.915111 7.75746 1.07278C7.40692 1.21064 7.09661 1.43431 6.85497 1.72326C6.57862 2.05372 6.43698 2.48075 6.27561 2.96729L6.24131 3.07054L6.12593 3.41666H3.33317H1.6665C1.25229 3.41666 0.916504 3.75244 0.916504 4.16666C0.916504 4.58087 1.25229 4.91666 1.6665 4.91666H2.62599L3.07525 12.5541L3.07696 12.5831C3.13228 13.5236 3.17618 14.27 3.2558 14.873C3.33728 15.4901 3.46219 16.0125 3.70754 16.4931C4.20594 17.4694 5.02665 18.2432 6.0305 18.6834C6.52466 18.9001 7.05353 18.9942 7.67433 19.0393C8.28094 19.0833 9.02864 19.0833 9.97077 19.0833H9.99984H10.0289C10.971 19.0833 11.7187 19.0833 12.3253 19.0393C12.9461 18.9942 13.475 18.9001 13.9692 18.6834C14.973 18.2432 15.7937 17.4694 16.2921 16.4931C16.5375 16.0125 16.6624 15.4901 16.7439 14.873C16.8235 14.27 16.8674 13.5237 16.9227 12.5832L16.9227 12.5831L16.9244 12.5541L17.3737 4.91666H18.3332C18.7474 4.91666 19.0832 4.58087 19.0832 4.16666C19.0832 3.75244 18.7474 3.41666 18.3332 3.41666H16.6665H13.8737L13.7584 3.07054L13.7241 2.96729C13.5627 2.48075 13.4211 2.05372 13.1447 1.72326C12.9031 1.43431 12.5928 1.21064 12.2422 1.07278C11.8413 0.915111 11.3914 0.915783 10.8788 0.916548L10.77 0.916656H9.22966ZM13.3157 4.91666C13.3272 4.91693 13.3388 4.91693 13.3504 4.91666H15.8711L15.427 12.466C15.3696 13.442 15.3284 14.134 15.2568 14.6766C15.1862 15.2113 15.0921 15.5448 14.9562 15.8111C14.6152 16.479 14.0536 17.0085 13.3668 17.3097C13.093 17.4298 12.7546 17.5041 12.2166 17.5432C11.6708 17.5829 10.9775 17.5833 9.99984 17.5833C9.0222 17.5833 8.32892 17.5829 7.78303 17.5432C7.24511 17.5041 6.90665 17.4298 6.63291 17.3097C5.94606 17.0085 5.38453 16.479 5.04351 15.8111C4.9076 15.5448 4.8135 15.2113 4.74289 14.6766C4.67124 14.134 4.63007 13.442 4.57266 12.466L4.12858 4.91666H6.64924C6.66085 4.91693 6.67243 4.91693 6.68398 4.91666H13.3157ZM12.2924 3.41666C12.1107 2.87677 12.0584 2.76244 11.994 2.68552C11.9135 2.58921 11.81 2.51465 11.6932 2.4687C11.5929 2.42926 11.456 2.41666 10.77 2.41666H9.22966C8.54363 2.41666 8.40674 2.42926 8.30647 2.4687C8.18963 2.51465 8.08619 2.58921 8.00564 2.68552C7.94132 2.76244 7.88902 2.87677 7.70727 3.41666H12.2924ZM9.08317 8.33332C9.08317 7.91911 8.74738 7.58332 8.33317 7.58332C7.91896 7.58332 7.58317 7.91911 7.58317 8.33332V14.1667C7.58317 14.5809 7.91896 14.9167 8.33317 14.9167C8.74738 14.9167 9.08317 14.5809 9.08317 14.1667V8.33332ZM11.6665 7.58332C12.0807 7.58332 12.4165 7.91911 12.4165 8.33332V11.6667C12.4165 12.0809 12.0807 12.4167 11.6665 12.4167C11.2523 12.4167 10.9165 12.0809 10.9165 11.6667V8.33332C10.9165 7.91911 11.2523 7.58332 11.6665 7.58332Z" fill="#7F8995"/>
</svg>
