<svg width="20" height="20" viewBox="0 0 20 20" fill="none" xmlns="http://www.w3.org/2000/svg">
<path opacity="0.12" fill-rule="evenodd" clip-rule="evenodd" d="M18.3332 10C18.3332 14.6024 14.6022 18.3334 9.99984 18.3334C5.39746 18.3334 1.6665 14.6024 1.6665 10C1.6665 5.39765 5.39746 1.66669 9.99984 1.66669C14.6022 1.66669 18.3332 5.39765 18.3332 10ZM8.88873 10.8334C7.66143 10.8334 6.6665 11.8283 6.6665 13.0556C6.6665 13.6692 7.16397 14.1667 7.77762 14.1667H12.2221C12.8357 14.1667 13.3332 13.6692 13.3332 13.0556C13.3332 11.8283 12.3382 10.8334 11.1109 10.8334H8.88873ZM9.99984 8.33335C10.9203 8.33335 11.6665 7.58716 11.6665 6.66669C11.6665 5.74621 10.9203 5.00002 9.99984 5.00002C9.07936 5.00002 8.33317 5.74621 8.33317 6.66669C8.33317 7.58716 9.07936 8.33335 9.99984 8.33335Z" fill="#7F8995"/>
<path fill-rule="evenodd" clip-rule="evenodd" d="M9.99984 2.41669C5.81168 2.41669 2.4165 5.81186 2.4165 10C2.4165 14.1882 5.81168 17.5834 9.99984 17.5834C14.188 17.5834 17.5832 14.1882 17.5832 10C17.5832 5.81186 14.188 2.41669 9.99984 2.41669ZM0.916504 10C0.916504 4.98343 4.98325 0.916687 9.99984 0.916687C15.0164 0.916687 19.0832 4.98343 19.0832 10C19.0832 15.0166 15.0164 19.0834 9.99984 19.0834C4.98325 19.0834 0.916504 15.0166 0.916504 10ZM8.88873 11.5834C8.07564 11.5834 7.4165 12.2425 7.4165 13.0556C7.4165 13.255 7.57818 13.4167 7.77762 13.4167H12.2221C12.4215 13.4167 12.5832 13.255 12.5832 13.0556C12.5832 12.2425 11.924 11.5834 11.1109 11.5834H8.88873ZM5.9165 13.0556C5.9165 11.4141 7.24721 10.0834 8.88873 10.0834H11.1109C12.7525 10.0834 14.0832 11.4141 14.0832 13.0556C14.0832 14.0834 13.2499 14.9167 12.2221 14.9167H7.77762C6.74975 14.9167 5.9165 14.0834 5.9165 13.0556ZM9.08317 6.66669C9.08317 6.16043 9.49358 5.75002 9.99984 5.75002C10.5061 5.75002 10.9165 6.16043 10.9165 6.66669C10.9165 7.17295 10.5061 7.58335 9.99984 7.58335C9.49358 7.58335 9.08317 7.17295 9.08317 6.66669ZM9.99984 4.25002C8.66515 4.25002 7.58317 5.332 7.58317 6.66669C7.58317 8.00138 8.66515 9.08335 9.99984 9.08335C11.3345 9.08335 12.4165 8.00138 12.4165 6.66669C12.4165 5.332 11.3345 4.25002 9.99984 4.25002Z" fill="#7F8995"/>
</svg>
