<svg width="24" height="26" viewBox="0 0 24 26" fill="none" xmlns="http://www.w3.org/2000/svg">
<path d="M6.32055 21.823L6.71271 22.0191C8.31172 22.9702 10.1398 23.4673 12.0002 23.457C17.7277 23.4439 22.4335 18.727 22.4335 12.9995C22.4335 10.2316 21.3342 7.57343 19.3793 5.61396C17.427 3.63423 14.7597 2.51855 11.98 2.51855C6.27872 2.51855 1.58789 7.21004 1.58789 12.9107C1.58789 12.9558 1.58789 13.0002 1.58855 13.0453C1.60572 14.9835 2.14781 16.8808 3.15717 18.5354L3.4186 18.9276L2.37286 22.7838L6.32055 21.823V21.823Z" fill="#00E676"/>
<path d="M20.5424 4.43776C18.3169 2.16717 15.2639 0.893346 12.0849 0.908334H12.0646C5.51763 0.908354 0.130077 6.29593 0.130077 12.8429C0.130077 12.8736 0.130733 12.9037 0.130733 12.9345C0.155393 15.016 0.694253 17.0592 1.69936 18.8821L0 25.0912L6.33331 23.4572C8.08289 24.4178 10.0498 24.9129 12.0457 24.8952C18.6169 24.8592 24.0038 19.4409 23.9999 12.8691C24.0155 9.71158 22.7705 6.675 20.5424 4.43776ZM12.0849 22.869C10.3157 22.8782 8.5777 22.4036 7.05878 21.4965L6.66662 21.3004L2.8954 22.2808L3.87578 18.5553L3.61436 18.1632C2.64325 16.5951 2.12877 14.7873 2.12874 12.9429C2.12874 7.50376 6.60454 3.02794 12.0437 3.02794C17.4829 3.02794 21.9587 7.50376 21.9587 12.9429C21.9587 16.3678 20.1842 19.5586 17.2744 21.3658C15.7355 22.3516 13.9452 22.8735 12.1176 22.869M17.8627 15.6142L17.1437 15.2874C17.1437 15.2874 16.0979 14.8298 15.4444 14.5031C15.379 14.5031 15.3136 14.4377 15.2483 14.4377C15.0871 14.4417 14.9297 14.4867 14.7908 14.5684C14.6515 14.6501 14.7254 14.6338 13.8104 15.6795C13.7483 15.8017 13.6208 15.8782 13.4836 15.8756H13.4182C13.32 15.8592 13.2289 15.8136 13.1568 15.7449L12.83 15.6142C12.1288 15.3173 11.4867 14.8967 10.9346 14.3724C10.8039 14.2416 10.6078 14.1109 10.4771 13.9802C9.9932 13.5167 9.57536 12.9889 9.23525 12.4116L9.16987 12.2809C9.11309 12.201 9.069 12.1128 9.03916 12.0194C9.02207 11.9062 9.04519 11.7906 9.10451 11.6926C9.16399 11.5946 9.36596 11.3658 9.56203 11.1697C9.75811 10.9737 9.75811 10.843 9.88883 10.7122C9.95601 10.6189 10.0024 10.5123 10.025 10.3996C10.0475 10.2868 10.0457 10.1706 10.0195 10.0586C9.71494 9.21291 9.36588 8.38388 8.9738 7.575C8.86871 7.41156 8.70498 7.2946 8.51629 7.2482H7.79733C7.66662 7.2482 7.53591 7.31355 7.40517 7.31355L7.33982 7.37891C7.20911 7.44426 7.07839 7.575 6.94766 7.64035C6.81695 7.70571 6.75159 7.9018 6.62088 8.03251C6.16396 8.6099 5.91115 9.32237 5.90192 10.0586C5.90916 10.5765 6.02029 11.0877 6.2287 11.5619L6.29408 11.758C6.88095 13.0127 7.70171 14.144 8.71238 15.0913L8.9738 15.3527C9.16405 15.5103 9.3391 15.6854 9.49667 15.8756C10.8509 17.054 12.4594 17.9037 14.196 18.3593C14.3921 18.4246 14.6535 18.4246 14.8496 18.49H15.5032C15.8448 18.4731 16.1789 18.384 16.4836 18.2285C16.6437 18.156 16.7966 18.0684 16.9411 17.9671L17.0718 17.8364C17.2025 17.7057 17.3332 17.6403 17.4639 17.5096C17.5917 17.3958 17.7018 17.2636 17.7907 17.1174C17.9162 16.8246 18.0045 16.5174 18.0522 16.2024V15.7449C17.9935 15.6921 17.9274 15.6481 17.8561 15.6142" fill="white"/>
</svg>
