<svg width="26" height="26" viewBox="0 0 26 26" fill="none" xmlns="http://www.w3.org/2000/svg">
<circle cx="13" cy="13" r="13" fill="#9B5C8F"/>
<path d="M5.94265 8.66602H20.0516C20.9445 8.66602 21.6673 9.38835 21.6673 10.2807V15.6629C21.6673 16.5553 20.9445 17.2776 20.0516 17.2776H14.9919L15.6864 18.9772L12.6322 17.2776H5.94969C5.05682 17.2776 4.33404 16.5553 4.33404 15.6629V10.2807C4.32693 9.39545 5.04965 8.66602 5.94265 8.66602Z" fill="white"/>
<path d="M5.32048 10.1376C5.41914 10.0037 5.56708 9.93334 5.76438 9.91926C6.12378 9.89105 6.32812 10.06 6.37741 10.4262C6.59584 11.8979 6.83539 13.1443 7.08903 14.1653L8.6321 11.229C8.77307 10.9614 8.94925 10.8206 9.16063 10.8065C9.47067 10.7854 9.66086 10.9825 9.73839 11.398C9.91457 12.3345 10.14 13.1302 10.4078 13.8062C10.591 12.0176 10.901 10.729 11.3379 9.93334C11.4435 9.73616 11.5985 9.63757 11.8029 9.62343C11.965 9.60942 12.1129 9.65868 12.2468 9.76431C12.3806 9.86993 12.4511 10.0037 12.4652 10.1657C12.4723 10.2924 12.4511 10.3981 12.3948 10.5037C12.12 11.0107 11.8944 11.8628 11.7113 13.0457C11.5352 14.1935 11.4717 15.0878 11.514 15.7286C11.5281 15.9046 11.4999 16.0595 11.4295 16.1934C11.3448 16.3482 11.2181 16.4328 11.056 16.4468C10.8728 16.4609 10.6826 16.3765 10.4994 16.1863C9.84408 15.5173 9.32266 14.5174 8.94221 13.1866C8.48416 14.0879 8.14596 14.7638 7.92753 15.2145C7.5118 16.0102 7.15951 16.4187 6.86356 16.4398C6.6733 16.4539 6.51127 16.2919 6.37037 15.954C6.01104 15.0315 5.62348 13.2499 5.20782 10.6093C5.17958 10.4262 5.22183 10.2642 5.32048 10.1376ZM20.4625 11.2431C20.2089 10.7995 19.8354 10.5319 19.3352 10.4262C19.2012 10.3981 19.0745 10.384 18.9547 10.384C18.2782 10.384 17.7287 10.7361 17.2988 11.4402C16.9324 12.0388 16.7493 12.7007 16.7493 13.426C16.7493 13.9682 16.862 14.4329 17.0875 14.8202C17.3411 15.2638 17.7146 15.5314 18.2148 15.637C18.3487 15.6652 18.4755 15.6793 18.5953 15.6793C19.2788 15.6793 19.8284 15.3272 20.2511 14.623C20.6175 14.0174 20.8007 13.3555 20.8007 12.6303C20.8078 12.081 20.688 11.6233 20.4625 11.2431ZM19.5747 13.1936C19.4761 13.6583 19.2999 14.0034 19.0392 14.2357C18.8349 14.4188 18.6446 14.4962 18.4685 14.461C18.2994 14.4259 18.1584 14.278 18.0528 14.0034C17.9681 13.7851 17.926 13.5668 17.926 13.3626C17.926 13.1866 17.94 13.0105 17.9753 12.8486C18.0387 12.5598 18.1585 12.2782 18.3487 12.0106C18.5812 11.6655 18.8278 11.5248 19.0815 11.574C19.2506 11.6092 19.3916 11.7571 19.4972 12.0317C19.5818 12.25 19.624 12.4683 19.624 12.6725C19.624 12.8556 19.6099 13.0316 19.5747 13.1935V13.1936ZM16.0517 11.2431C15.798 10.7995 15.4175 10.5319 14.9243 10.4262C14.7905 10.3981 14.6636 10.384 14.5438 10.384C13.8674 10.384 13.3178 10.7361 12.888 11.4402C12.5216 12.0388 12.3384 12.7007 12.3384 13.426C12.3384 13.9682 12.4511 14.4329 12.6766 14.8202C12.9302 15.2638 13.3037 15.5314 13.8039 15.637C13.9379 15.6652 14.0646 15.6793 14.1845 15.6793C14.8679 15.6793 15.4175 15.3272 15.8403 14.623C16.2067 14.0174 16.3899 13.3555 16.3899 12.6303C16.3899 12.081 16.2771 11.6233 16.0517 11.2431ZM15.1568 13.1936C15.0582 13.6583 14.882 14.0034 14.6213 14.2357C14.417 14.4188 14.2267 14.4962 14.0505 14.461C13.8815 14.4259 13.7406 14.278 13.6348 14.0034C13.5503 13.7851 13.5081 13.5668 13.5081 13.3626C13.5081 13.1866 13.5221 13.0105 13.5573 12.8486C13.6208 12.5598 13.7406 12.2782 13.9308 12.0106C14.1633 11.6655 14.4099 11.5248 14.6636 11.574C14.8327 11.6092 14.9737 11.7571 15.0793 12.0317C15.1639 12.25 15.2061 12.4683 15.2061 12.6725C15.2132 12.8556 15.192 13.0316 15.1568 13.1935V13.1936Z" fill="#9B5C8F"/>
</svg>
