<svg width="20" height="20" viewBox="0 0 20 20" fill="none" xmlns="http://www.w3.org/2000/svg">
<path d="M17.5 7.49998L17.8642 8.1556C18.1023 8.02332 18.25 7.77236 18.25 7.49998C18.25 7.2276 18.1023 6.97664 17.8642 6.84436L17.5 7.49998ZM10 11.6666L9.63577 12.3223C9.86229 12.4481 10.1377 12.4481 10.3642 12.3223L10 11.6666ZM2.5 7.49998L2.13577 6.84436C1.89767 6.97664 1.75 7.2276 1.75 7.49998C1.75 7.77236 1.89767 8.02332 2.13577 8.1556L2.5 7.49998ZM10 3.33331L10.3642 2.6777C10.1377 2.55185 9.86228 2.55185 9.63577 2.6777L10 3.33331ZM6.66667 10.4166L6.30243 9.76103C6.06434 9.89331 5.91667 10.1443 5.91667 10.4166H6.66667ZM5.91667 16.6666C5.91667 17.0808 6.25245 17.4166 6.66667 17.4166C7.08088 17.4166 7.41667 17.0808 7.41667 16.6666H5.91667ZM10.3642 9.22041C10.7263 9.01925 10.8568 8.56265 10.6556 8.20056C10.4545 7.83847 9.99786 7.70802 9.63577 7.90918L10.3642 9.22041ZM15.1326 8.8152L15.8298 8.53871C15.7502 8.33811 15.5881 8.18149 15.3849 8.1089C15.1816 8.03631 14.957 8.05478 14.7684 8.15958L15.1326 8.8152ZM15.687 14.214L15.7596 14.9605C16.0957 14.9278 16.3686 14.6745 16.426 14.3417L15.687 14.214ZM10 16.7129L9.49982 17.2718C9.78458 17.5266 10.2154 17.5266 10.5002 17.2718L10 16.7129ZM4.31301 14.214L3.57396 14.3417C3.63145 14.6745 3.90429 14.9278 4.24043 14.9605L4.31301 14.214ZM4.8674 8.81519L5.23163 8.15957C5.04298 8.05476 4.81833 8.0363 4.61511 8.10889C4.41188 8.18149 4.24977 8.3381 4.17022 8.53871L4.8674 8.81519ZM17.1358 6.84436L9.63577 11.011L10.3642 12.3223L17.8642 8.1556L17.1358 6.84436ZM10.3642 11.011L2.86423 6.84436L2.13577 8.1556L9.63577 12.3223L10.3642 11.011ZM2.86423 8.1556L10.3642 3.98893L9.63577 2.6777L2.13577 6.84436L2.86423 8.1556ZM9.63577 3.98893L17.1358 8.1556L17.8642 6.84436L10.3642 2.6777L9.63577 3.98893ZM5.91667 10.4166V16.6666H7.41667V10.4166H5.91667ZM9.63577 7.90918L6.30243 9.76103L7.0309 11.0723L10.3642 9.22041L9.63577 7.90918ZM14.7684 8.15958L9.63577 11.011L10.3642 12.3223L15.4968 9.47081L14.7684 8.15958ZM16.5833 12.4999C16.5833 11.1025 16.3163 9.76554 15.8298 8.53871L14.4354 9.09168C14.8533 10.1454 15.0833 11.2949 15.0833 12.4999H16.5833ZM16.426 14.3417C16.5295 13.7428 16.5833 13.1273 16.5833 12.4999H15.0833C15.0833 13.0414 15.0369 13.5714 14.9479 14.0864L16.426 14.3417ZM10.5002 17.2718C11.9262 15.9955 13.7487 15.156 15.7596 14.9605L15.6144 13.4675C13.2751 13.695 11.1556 14.6722 9.49982 16.1541L10.5002 17.2718ZM4.24043 14.9605C6.25131 15.156 8.07383 15.9955 9.49982 17.2718L10.5002 16.1541C8.84444 14.6722 6.72488 13.695 4.3856 13.4675L4.24043 14.9605ZM3.41667 12.4999C3.41667 13.1273 3.4705 13.7427 3.57396 14.3417L5.05207 14.0864C4.96311 13.5714 4.91667 13.0414 4.91667 12.4999H3.41667ZM4.17022 8.53871C3.6837 9.76552 3.41667 11.1024 3.41667 12.4999H4.91667C4.91667 11.2949 5.14671 10.1454 5.56458 9.09167L4.17022 8.53871ZM10.3642 11.011L5.23163 8.15957L4.50316 9.4708L9.63577 12.3223L10.3642 11.011Z" fill="#0C1523"/>
</svg>
