<svg width="20" height="20" viewBox="0 0 20 20" fill="none" xmlns="http://www.w3.org/2000/svg">
<path d="M10.7502 3.33331C10.7502 2.9191 10.4144 2.58331 10.0002 2.58331C9.58595 2.58331 9.25016 2.9191 9.25016 3.33331H10.7502ZM5.75016 3.33331C5.75016 2.9191 5.41438 2.58331 5.00016 2.58331C4.58595 2.58331 4.25016 2.9191 4.25016 3.33331H5.75016ZM9.25016 16.6666C9.25016 17.0809 9.58595 17.4166 10.0002 17.4166C10.4144 17.4166 10.7502 17.0809 10.7502 16.6666H9.25016ZM15.7502 3.33331C15.7502 2.9191 15.4144 2.58331 15.0002 2.58331C14.5859 2.58331 14.2502 2.9191 14.2502 3.33331H15.7502ZM4.25016 16.6666C4.25016 17.0809 4.58595 17.4166 5.00016 17.4166C5.41438 17.4166 5.75016 17.0809 5.75016 16.6666H4.25016ZM14.2502 16.6666C14.2502 17.0809 14.5859 17.4166 15.0002 17.4166C15.4144 17.4166 15.7502 17.0809 15.7502 16.6666H14.2502ZM10.7502 4.99998V3.33331H9.25016V4.99998H10.7502ZM5.91683 13.3333C5.91683 13.8396 5.50642 14.25 5.00016 14.25V15.75C6.33485 15.75 7.41683 14.668 7.41683 13.3333H5.91683ZM5.00016 14.25C4.4939 14.25 4.0835 13.8396 4.0835 13.3333H2.5835C2.5835 14.668 3.66547 15.75 5.00016 15.75V14.25ZM4.0835 13.3333C4.0835 12.8271 4.4939 12.4166 5.00016 12.4166V10.9166C3.66547 10.9166 2.5835 11.9986 2.5835 13.3333H4.0835ZM5.00016 12.4166C5.50642 12.4166 5.91683 12.8271 5.91683 13.3333H7.41683C7.41683 11.9986 6.33485 10.9166 5.00016 10.9166V12.4166ZM10.9168 6.66665C10.9168 7.17291 10.5064 7.58331 10.0002 7.58331V9.08331C11.3349 9.08331 12.4168 8.00133 12.4168 6.66665H10.9168ZM10.0002 7.58331C9.4939 7.58331 9.0835 7.17291 9.0835 6.66665H7.5835C7.5835 8.00133 8.66547 9.08331 10.0002 9.08331V7.58331ZM9.0835 6.66665C9.0835 6.16039 9.4939 5.74998 10.0002 5.74998V4.24998C8.66547 4.24998 7.5835 5.33196 7.5835 6.66665H9.0835ZM10.0002 5.74998C10.5064 5.74998 10.9168 6.16039 10.9168 6.66665H12.4168C12.4168 5.33196 11.3349 4.24998 10.0002 4.24998V5.74998ZM15.9168 13.3333C15.9168 13.8396 15.5064 14.25 15.0002 14.25V15.75C16.3349 15.75 17.4168 14.668 17.4168 13.3333H15.9168ZM15.0002 14.25C14.4939 14.25 14.0835 13.8396 14.0835 13.3333H12.5835C12.5835 14.668 13.6655 15.75 15.0002 15.75V14.25ZM14.0835 13.3333C14.0835 12.8271 14.4939 12.4166 15.0002 12.4166V10.9166C13.6655 10.9166 12.5835 11.9986 12.5835 13.3333H14.0835ZM15.0002 12.4166C15.5064 12.4166 15.9168 12.8271 15.9168 13.3333H17.4168C17.4168 11.9986 16.3349 10.9166 15.0002 10.9166V12.4166ZM5.75016 11.6666V3.33331H4.25016V11.6666H5.75016ZM10.7502 16.6666V8.33331H9.25016V16.6666H10.7502ZM15.7502 11.6666V3.33331H14.2502V11.6666H15.7502ZM5.75016 16.6666V15H4.25016V16.6666H5.75016ZM15.7502 16.6666V15H14.2502V16.6666H15.7502Z" fill="#7F8995"/>
</svg>
