<svg width="20" height="20" viewBox="0 0 20 20" fill="none" xmlns="http://www.w3.org/2000/svg">
<path d="M12.4987 14.1667H16.6654L15.4946 12.9959C15.1771 12.6784 14.9987 12.2477 14.9987 11.7987V9.16667C14.9987 6.98964 13.6074 5.13757 11.6654 4.45118V4.16667C11.6654 3.24619 10.9192 2.5 9.9987 2.5C9.07822 2.5 8.33203 3.24619 8.33203 4.16667V4.45118C6.39004 5.13757 4.9987 6.98964 4.9987 9.16667V11.7987C4.9987 12.2477 4.82032 12.6784 4.50281 12.9959L3.33203 14.1667H7.4987M12.4987 14.1667V15C12.4987 16.3807 11.3794 17.5 9.9987 17.5C8.61799 17.5 7.4987 16.3807 7.4987 15V14.1667M12.4987 14.1667H7.4987" stroke="url(#paint0_linear_2180_2337)" stroke-width="1.5" stroke-linecap="round" stroke-linejoin="round"/>
<defs>
<linearGradient id="paint0_linear_2180_2337" x1="3.33988" y1="9.99923" x2="16.6655" y2="9.99923" gradientUnits="userSpaceOnUse">
<stop stop-color="#FC6060"/>
<stop offset="0.333333" stop-color="#C160FC"/>
<stop offset="0.692708" stop-color="#7B60E8"/>
<stop offset="1" stop-color="#3F3CFF"/>
</linearGradient>
</defs>
</svg>
