<svg width="20" height="20" viewBox="0 0 20 20" fill="none" xmlns="http://www.w3.org/2000/svg">
<path opacity="0.12" d="M4.01942 6.56957C4.58959 3.71874 7.09271 1.66667 10 1.66667C12.9073 1.66667 15.4104 3.71875 15.9806 6.56958L17.0254 11.7937C17.3028 13.1809 16.5659 14.5818 15.2732 15.1564C11.9393 16.6381 8.06069 16.6381 4.72681 15.1564C3.4341 14.5818 2.69716 13.1809 2.97459 11.7937L4.01942 6.56957Z" fill="#B8C1CC"/>
<path fill-rule="evenodd" clip-rule="evenodd" d="M10.0002 0.916672C6.73539 0.916672 3.92445 3.22109 3.28417 6.42248L2.23934 11.6466C1.89211 13.3828 2.81362 15.1267 4.4224 15.8417C4.97797 16.0886 5.54774 16.2967 6.12722 16.4658L6.19008 16.6073C6.85928 18.113 8.35246 19.0833 10.0002 19.0833C11.6479 19.0833 13.1411 18.113 13.8103 16.6073L13.8732 16.4658C14.4526 16.2967 15.0224 16.0886 15.578 15.8417C17.1868 15.1267 18.1083 13.3828 17.761 11.6466L16.7162 6.42249C16.0759 3.22109 13.265 0.916672 10.0002 0.916672ZM13.2155 15.0926C13.1664 15.1005 13.1184 15.1131 13.0721 15.1304C11.063 15.6467 8.93741 15.6467 6.9283 15.1304C6.88197 15.1131 6.83393 15.1005 6.78491 15.0926C6.18757 14.9313 5.60108 14.7241 5.0316 14.471C4.05496 14.0369 3.50259 12.9789 3.71021 11.9408L4.75504 6.71666C5.2551 4.2164 7.45041 2.41667 10.0002 2.41667C12.55 2.41667 14.7453 4.2164 15.2453 6.71666L16.2902 11.9408C16.4978 12.9789 15.9454 14.0369 14.9688 14.471C14.3993 14.7241 13.8128 14.9313 13.2155 15.0926ZM8.2201 16.9032C9.40104 17.0558 10.5993 17.0558 11.7803 16.9032C11.2999 17.3329 10.67 17.5833 10.0002 17.5833C9.33037 17.5833 8.70044 17.3329 8.2201 16.9032Z" fill="#7F8995"/>
</svg>
