<svg width="20" height="20" viewBox="0 0 20 20" fill="none" xmlns="http://www.w3.org/2000/svg">
<path opacity="0.12" d="M18.3332 11.4489V6.06817C18.3332 5.92246 18.2567 5.78744 18.1318 5.71248C17.9994 5.63307 17.834 5.63371 17.7022 5.71414L12.5011 8.88959C11.5925 9.44429 11.1382 9.72164 10.6523 9.82991C10.2226 9.92566 9.77707 9.92566 9.34735 9.82991C8.86146 9.72164 8.40718 9.44429 7.49862 8.88959L2.29745 5.71414C2.16572 5.63371 2.00023 5.63307 1.86789 5.71248C1.74295 5.78744 1.6665 5.92246 1.6665 6.06817V11.4489C1.6665 12.44 1.6665 12.9355 1.80869 13.3807C1.93452 13.7747 2.14046 14.1385 2.41359 14.4491C2.72223 14.8001 3.14713 15.055 3.99692 15.5649L7.53026 17.6849C8.42816 18.2236 8.87711 18.493 9.35637 18.5983C9.7803 18.6913 10.2194 18.6913 10.6433 18.5983C11.1226 18.493 11.5715 18.2236 12.4694 17.6849L16.0028 15.5649C16.8525 15.055 17.2774 14.8001 17.5861 14.4491C17.8592 14.1385 18.0652 13.7747 18.191 13.3807C18.3332 12.9355 18.3332 12.44 18.3332 11.4489Z" fill="#7F8995"/>
<path fill-rule="evenodd" clip-rule="evenodd" d="M10.8042 0.669184C10.2743 0.552817 9.72547 0.552817 9.19556 0.669185C8.59446 0.801187 8.04547 1.13088 7.251 1.60799L7.14444 1.67197L3.61111 3.79197L3.5106 3.85224C2.75786 4.30349 2.23751 4.61543 1.85042 5.05566C1.50901 5.44392 1.25158 5.89859 1.0943 6.39111C0.915966 6.94953 0.916197 7.55621 0.916532 8.43386L0.916562 8.55105V11.449L0.916532 11.5661C0.916197 12.4438 0.915966 13.0505 1.0943 13.6089C1.25158 14.1014 1.50901 14.5561 1.85042 14.9444C2.23751 15.3846 2.75786 15.6965 3.5106 16.1478L3.61111 16.208L7.14444 18.328L7.25099 18.392C8.04547 18.8691 8.59446 19.1988 9.19556 19.3308C9.33731 19.3619 9.48041 19.3848 9.62414 19.3992C9.73463 19.4633 9.86297 19.5 9.9999 19.5C10.1368 19.5 10.2652 19.4633 10.3757 19.3992C10.5194 19.3848 10.6625 19.3619 10.8042 19.3308C11.4053 19.1988 11.9543 18.8691 12.7488 18.392L12.7488 18.392L12.8553 18.328L16.3887 16.208L16.4892 16.1478C17.2419 15.6965 17.7623 15.3846 18.1494 14.9444C18.4908 14.5561 18.7482 14.1014 18.9055 13.6089C19.0838 13.0505 19.0836 12.4438 19.0833 11.5662V11.5662L19.0832 11.449V8.55105L19.0833 8.43386V8.43383C19.0836 7.5562 19.0838 6.94952 18.9055 6.39111C18.7482 5.89859 18.4908 5.44392 18.1494 5.05566C17.7623 4.61543 17.2419 4.3035 16.4892 3.85225L16.4892 3.85224L16.3887 3.79197L12.8553 1.67197L12.7488 1.60799C11.9543 1.13088 11.4053 0.801187 10.8042 0.669184ZM10.7499 17.7818C11.0244 17.6714 11.385 17.461 12.0836 17.0418L15.6169 14.9218C16.5092 14.3864 16.8097 14.1963 17.0229 13.9539C17.2278 13.7209 17.3822 13.4481 17.4766 13.1526C17.5748 12.845 17.5832 12.4895 17.5832 11.449V8.55105C17.5832 7.51047 17.5748 7.15498 17.4766 6.84743C17.4659 6.81385 17.4544 6.78057 17.4421 6.74761L10.7499 10.8373V17.7818ZM16.4551 5.59284C16.253 5.46151 15.9854 5.29929 15.6169 5.07821L12.0836 2.9582C11.1405 2.39235 10.8134 2.20694 10.4825 2.13427C10.1645 2.06445 9.83524 2.06445 9.5173 2.13427C9.18638 2.20694 8.85927 2.39235 7.91619 2.9582L4.38285 5.07821C4.01437 5.29929 3.74681 5.46151 3.54465 5.59284L9.9999 9.53771L16.4551 5.59284ZM2.55768 6.74761C2.54542 6.78057 2.53393 6.81385 2.5232 6.84743C2.42499 7.15497 2.41656 7.51047 2.41656 8.55105V11.449C2.41656 12.4895 2.42499 12.845 2.5232 13.1526C2.61757 13.4481 2.77203 13.7209 2.97688 13.9539C3.19006 14.1963 3.49056 14.3864 4.38285 14.9218L7.91619 17.0418C8.61478 17.461 8.97538 17.6714 9.2499 17.7818V10.8373L2.55768 6.74761Z" fill="#7F8995"/>
</svg>
