<svg width="36" height="36" viewBox="0 0 36 36" fill="none" xmlns="http://www.w3.org/2000/svg">
<path d="M16.5 4.58252H17.5C17.5 4.29817 17.379 4.02727 17.1671 3.83758C16.9553 3.64788 16.6727 3.55733 16.3901 3.58857L16.5 4.58252ZM31.4176 19.5001L32.4116 19.61C32.4428 19.3274 32.3522 19.0448 32.1625 18.833C31.9729 18.6212 31.702 18.5001 31.4176 18.5001V19.5001ZM16.5 19.5001H15.5C15.5 20.0524 15.9477 20.5001 16.5 20.5001V19.5001ZM30.7317 13.5001V14.5001C31.0564 14.5001 31.3608 14.3426 31.5482 14.0775C31.7356 13.8125 31.7827 13.4729 31.6746 13.1669L30.7317 13.5001ZM22.5 13.5001H21.5C21.5 14.0524 21.9477 14.5001 22.5 14.5001V13.5001ZM22.5 5.26857L22.8332 4.32573C22.5272 4.21756 22.1877 4.26467 21.9226 4.4521C21.6576 4.63953 21.5 4.94396 21.5 5.26857H22.5ZM5.5 18.0001C5.5 11.5667 10.361 6.26724 16.6099 5.57646L16.3901 3.58857C9.13914 4.39013 3.5 10.5359 3.5 18.0001H5.5ZM18 30.5001C11.0964 30.5001 5.5 24.9037 5.5 18.0001H3.5C3.5 26.0083 9.99187 32.5001 18 32.5001V30.5001ZM30.4237 19.3902C29.7329 25.6391 24.4334 30.5001 18 30.5001V32.5001C25.4642 32.5001 31.61 26.861 32.4116 19.61L30.4237 19.3902ZM31.4176 18.5001H16.5V20.5001H31.4176V18.5001ZM17.5 19.5001V4.58252H15.5V19.5001H17.5ZM30.7317 12.5001H22.5V14.5001H30.7317V12.5001ZM23.5 13.5001V5.26857H21.5V13.5001H23.5ZM22.1668 6.21141C25.7177 7.46649 28.5338 10.2825 29.7889 13.8334L31.6746 13.1669C30.2181 9.04629 26.9539 5.78216 22.8332 4.32573L22.1668 6.21141Z" fill="url(#paint0_linear_2146_2046)"/>
<defs>
<linearGradient id="paint0_linear_2146_2046" x1="4.51584" y1="18.0399" x2="31.4178" y2="18.0399" gradientUnits="userSpaceOnUse">
<stop stop-color="#FC6060"/>
<stop offset="0.333333" stop-color="#C160FC"/>
<stop offset="0.692708" stop-color="#7B60E8"/>
<stop offset="1" stop-color="#3F3CFF"/>
</linearGradient>
</defs>
</svg>
