<svg width="20" height="20" viewBox="0 0 20 20" fill="none" xmlns="http://www.w3.org/2000/svg">
<path d="M6.46015 4.48571L6.8504 3.84523L6.46015 4.48571ZM8.60386 3.59776L7.87503 3.42082L8.60386 3.59776ZM4.48571 6.46015L3.84523 6.8504L4.48571 6.46015ZM3.59776 8.60386L3.42082 7.87503L3.59776 8.60386ZM3.59776 11.3961L3.77469 10.6673L3.59776 11.3961ZM4.48571 13.5398L3.84523 13.1496L4.48571 13.5398ZM6.46016 15.5143L6.8504 16.1548L6.46016 15.5143ZM8.60386 16.4022L9.33269 16.2253L8.60386 16.4022ZM11.3961 16.4022L12.125 16.5792L11.3961 16.4022ZM13.5398 15.5143L13.1496 16.1548L13.5398 15.5143ZM15.5143 13.5398L16.1548 13.1496L15.5143 13.5398ZM16.4022 11.3961L16.5792 12.125L16.4022 11.3961ZM16.4022 8.60386L16.2253 9.33269L16.4022 8.60386ZM15.5143 6.46015L16.1548 6.8504L15.5143 6.46015ZM13.5398 4.48571L13.1496 3.84523L13.5398 4.48571ZM11.3961 3.59776L10.6673 3.77469L11.3961 3.59776ZM6.06991 5.12618C7.33455 5.89674 8.98332 5.2138 9.33269 3.77469L7.87503 3.42082C7.76531 3.87275 7.24754 4.08722 6.8504 3.84523L6.06991 5.12618ZM5.12618 6.06991C4.75159 5.45513 5.45513 4.75159 6.06991 5.12618L6.8504 3.84523C4.89271 2.65239 2.65239 4.89271 3.84523 6.8504L5.12618 6.06991ZM3.77469 9.33269C5.2138 8.98332 5.89674 7.33455 5.12618 6.06991L3.84523 6.8504C4.08722 7.24754 3.87275 7.76531 3.42082 7.87503L3.77469 9.33269ZM3.77469 10.6673C3.0751 10.4975 3.0751 9.50252 3.77469 9.33269L3.42082 7.87503C1.19306 8.41585 1.19306 11.5841 3.42082 12.125L3.77469 10.6673ZM5.12618 13.9301C5.89674 12.6655 5.2138 11.0167 3.77469 10.6673L3.42082 12.125C3.87275 12.2347 4.08722 12.7525 3.84523 13.1496L5.12618 13.9301ZM6.06991 14.8738C5.45513 15.2484 4.75159 14.5449 5.12618 13.9301L3.84523 13.1496C2.65239 15.1073 4.89271 17.3476 6.8504 16.1548L6.06991 14.8738ZM9.33269 16.2253C8.98332 14.7862 7.33455 14.1033 6.06991 14.8738L6.8504 16.1548C7.24754 15.9128 7.76531 16.1273 7.87503 16.5792L9.33269 16.2253ZM10.6673 16.2253C10.4975 16.9249 9.50252 16.9249 9.33269 16.2253L7.87503 16.5792C8.41586 18.8069 11.5841 18.8069 12.125 16.5792L10.6673 16.2253ZM13.9301 14.8738C12.6655 14.1033 11.0167 14.7862 10.6673 16.2253L12.125 16.5792C12.2347 16.1273 12.7525 15.9128 13.1496 16.1548L13.9301 14.8738ZM14.8738 13.9301C15.2484 14.5449 14.5449 15.2484 13.9301 14.8738L13.1496 16.1548C15.1073 17.3476 17.3476 15.1073 16.1548 13.1496L14.8738 13.9301ZM16.2253 10.6673C14.7862 11.0167 14.1033 12.6655 14.8738 13.9301L16.1548 13.1496C15.9128 12.7525 16.1273 12.2347 16.5792 12.125L16.2253 10.6673ZM16.2253 9.33269C16.9249 9.50252 16.9249 10.4975 16.2253 10.6673L16.5792 12.125C18.8069 11.5841 18.8069 8.41585 16.5792 7.87503L16.2253 9.33269ZM14.8738 6.06991C14.1033 7.33455 14.7862 8.98332 16.2253 9.33269L16.5792 7.87503C16.1273 7.76531 15.9128 7.24754 16.1548 6.8504L14.8738 6.06991ZM13.9301 5.12618C14.5449 4.75159 15.2484 5.45513 14.8738 6.06991L16.1548 6.8504C17.3476 4.89271 15.1073 2.65239 13.1496 3.84523L13.9301 5.12618ZM10.6673 3.77469C11.0167 5.2138 12.6655 5.89674 13.9301 5.12618L13.1496 3.84523C12.7525 4.08722 12.2347 3.87275 12.125 3.42082L10.6673 3.77469ZM12.125 3.42082C11.5841 1.19306 8.41586 1.19306 7.87503 3.42082L9.33269 3.77469C9.50252 3.0751 10.4975 3.0751 10.6673 3.77469L12.125 3.42082ZM11.75 10C11.75 10.9665 10.9665 11.75 10 11.75V13.25C11.7949 13.25 13.25 11.7949 13.25 10H11.75ZM10 11.75C9.0335 11.75 8.25 10.9665 8.25 10H6.75C6.75 11.7949 8.20507 13.25 10 13.25V11.75ZM8.25 10C8.25 9.0335 9.0335 8.25 10 8.25V6.75C8.20507 6.75 6.75 8.20507 6.75 10H8.25ZM10 8.25C10.9665 8.25 11.75 9.0335 11.75 10H13.25C13.25 8.20507 11.7949 6.75 10 6.75V8.25Z" fill="#7F8995"/>
</svg>
