<svg width="36" height="36" viewBox="0 0 36 36" fill="none" xmlns="http://www.w3.org/2000/svg">
<circle cx="18" cy="18" r="18" fill="#FFA589"/>
<g clip-path="url(#clip0_2173_3090)">
<path d="M17.5285 13.9827C17.3514 12.4644 17.1643 10.8614 17.1643 9H18.8357C18.8357 10.8405 18.6495 12.4415 18.4726 13.9614C18.3285 15.2001 18.1906 16.3849 18.165 17.6017C19.0042 16.7264 19.7383 15.7981 20.5074 14.8258C21.4556 13.627 22.4569 12.3613 23.773 11.0451L24.9549 12.227C23.6535 13.5284 22.3896 14.5287 21.1898 15.4785L21.1887 15.4793C20.2113 16.253 19.2764 16.9931 18.3982 17.835C19.6105 17.8094 20.786 17.6723 22.0172 17.5286C23.5355 17.3514 25.1386 17.1643 27 17.1643V18.8357C25.1596 18.8357 23.5586 18.6494 22.0387 18.4726L22.0376 18.4725C20.7992 18.3284 19.6147 18.1906 18.3982 18.165C19.2731 19.0036 20.2008 19.7374 21.1725 20.5059L21.174 20.5072C22.3728 21.4555 23.6387 22.4568 24.9549 23.773L23.773 24.9549C22.4716 23.6535 21.4713 22.3897 20.5217 21.19L20.5195 21.1869L20.5176 21.1844C19.7449 20.2086 19.0057 19.2752 18.165 18.3982C18.1906 19.615 18.3285 20.7999 18.4726 22.0386C18.6495 23.5585 18.8357 25.1595 18.8357 27H17.1643C17.1643 25.1386 17.3514 23.5356 17.5285 22.0173L17.5289 22.0149C17.6724 20.7845 17.8094 19.6097 17.835 18.3982C16.9943 19.2752 16.2551 20.2086 15.4824 21.1844L15.4805 21.1869L15.4783 21.19C14.5287 22.3897 13.5284 23.6535 12.227 24.9549L11.0451 23.773C12.3613 22.4568 13.6272 21.4555 14.826 20.5072L14.8275 20.5059C15.7992 19.7374 16.7269 19.0036 17.6017 18.165C16.3849 18.1907 15.2001 18.3285 13.9613 18.4726C12.4414 18.6494 10.8404 18.8357 9 18.8357V17.1643C10.8614 17.1643 12.4645 17.3514 13.9828 17.5286C15.214 17.6723 16.3894 17.8094 17.6017 17.835C16.7232 16.9928 15.7879 16.2525 14.8102 15.4785C13.6104 14.5287 12.3465 13.5284 11.0451 12.227L12.227 11.0451C13.5431 12.3613 14.5444 13.627 15.4926 14.8258C16.2617 15.7981 16.9958 16.7263 17.835 17.6017C17.8094 16.3902 17.6724 15.2155 17.5289 13.9851L17.5285 13.9827Z" fill="#FFF0EC"/>
</g>
<defs>
<clipPath id="clip0_2173_3090">
<rect width="18" height="18" fill="white" transform="translate(9 9)"/>
</clipPath>
</defs>
</svg>
