<svg width="36" height="36" viewBox="0 0 36 36" fill="none" xmlns="http://www.w3.org/2000/svg">
<circle cx="18" cy="18" r="18" fill="#17CF97"/>
<g clip-path="url(#clip0_2173_3076)">
<path d="M18.5003 12.5781C18.5003 15.2964 16.3417 17.5 13.6789 17.5H8.85742V12.5781C8.85742 9.85985 11.016 7.65625 13.6789 7.65625C16.3417 7.65625 18.5003 9.85985 18.5003 12.5781Z" fill="white"/>
<path d="M18.5 22.4219C18.5 19.7036 20.6586 17.5 23.3214 17.5H28.1429V22.4219C28.1429 25.1402 25.9842 27.3438 23.3214 27.3438C20.6586 27.3438 18.5 25.1402 18.5 22.4219Z" fill="white"/>
<path d="M8.85742 22.4219C8.85742 25.1402 11.016 27.3438 13.6789 27.3438H18.5003V22.4219C18.5003 19.7036 16.3417 17.5 13.6789 17.5C11.016 17.5 8.85742 19.7036 8.85742 22.4219Z" fill="white"/>
<path d="M28.1429 12.5781C28.1429 9.85985 25.9842 7.65625 23.3214 7.65625H18.5V12.5781C18.5 15.2964 20.6586 17.5 23.3214 17.5C25.9842 17.5 28.1429 15.2964 28.1429 12.5781Z" fill="white"/>
</g>
<defs>
<clipPath id="clip0_2173_3076">
<rect width="21" height="21" fill="white" transform="translate(8 7)"/>
</clipPath>
</defs>
</svg>
