<svg width="20" height="20" viewBox="0 0 20 20" fill="none" xmlns="http://www.w3.org/2000/svg">
<path opacity="0.12" d="M5.99819 12.3442L5 18.3333H13.4338C14.8784 18.3333 15.6007 18.3333 16.1865 18.0705C16.7029 17.8388 17.1433 17.4658 17.4567 16.9945C17.8122 16.4599 17.931 15.7474 18.1685 14.3224L18.5457 12.0594C18.7593 10.7774 18.8661 10.1365 18.6806 9.63694C18.5178 9.19858 18.2065 8.83113 17.8009 8.59845C17.3386 8.33331 16.6888 8.33331 15.3892 8.33331H10.7329C9.28827 8.33331 8.56596 8.33331 7.98013 8.59612C7.46372 8.82779 7.02338 9.20081 6.70997 9.67211C6.35442 10.2068 6.23568 10.9192 5.99819 12.3442Z" fill="#7F8995"/>
<path fill-rule="evenodd" clip-rule="evenodd" d="M5.78679 0.916444L5.65705 0.916412C4.74051 0.916074 4.11469 0.915844 3.58248 1.07656C2.38035 1.43958 1.43971 2.38022 1.07668 3.58236C0.915966 4.11456 0.916196 4.74039 0.916534 5.65693L0.916566 5.78667V13.5331L0.916566 13.5652C0.916558 14.3781 0.916552 15.0337 0.959929 15.5646C1.00459 16.1112 1.09895 16.5914 1.32529 17.0356C1.68482 17.7412 2.25849 18.3149 2.9641 18.6744C3.40832 18.9007 3.88846 18.9951 4.4351 19.0397C4.5595 19.0499 4.69074 19.0577 4.82926 19.0637C4.88469 19.0766 4.94191 19.0833 4.9999 19.0833H13.4337H13.4627H13.4628C14.1604 19.0833 14.7259 19.0833 15.1887 19.0483C15.6673 19.0121 16.0902 18.9357 16.4934 18.7548C17.1389 18.4652 17.6894 17.9989 18.0811 17.4098C18.3259 17.0418 18.4708 16.6372 18.5851 16.1711C18.6958 15.7203 18.7887 15.1625 18.9034 14.4744L18.9082 14.4457L19.2853 12.1827L19.2908 12.1499C19.393 11.5368 19.4776 11.0293 19.5104 10.6138C19.5443 10.1839 19.5312 9.7732 19.3836 9.3758C19.1597 8.77305 18.7317 8.26781 18.1739 7.94788C17.9313 7.80872 17.6734 7.72633 17.4025 7.67569C17.4024 7.67471 17.4024 7.67373 17.4023 7.67274C17.2436 5.85998 15.8064 4.42276 13.9936 4.26406C13.8298 4.24972 13.6442 4.24974 13.3716 4.24977L13.333 4.24978H11.8633L11.8478 4.24977C11 4.24742 10.2256 3.76877 9.84434 3.01158L9.83739 2.9977L9.82857 2.9801C9.1932 1.71811 7.90243 0.920376 6.48953 0.916458L6.46984 0.916444H5.78679ZM15.8779 7.58391C15.6939 6.60162 14.8761 5.84706 13.8628 5.75835C13.7731 5.7505 13.6586 5.74978 13.333 5.74978H11.8633L11.8436 5.74976C10.4307 5.74584 9.13993 4.94811 8.50456 3.68612L8.49575 3.66852L8.48879 3.65464C8.10757 2.89745 7.33311 2.4188 6.48537 2.41645L6.46984 2.41644H5.78679C4.69026 2.41644 4.30752 2.42452 4.01612 2.51251C3.29483 2.73033 2.73045 3.29471 2.51264 4.01599C2.42464 4.30739 2.41657 4.69013 2.41657 5.78667V13.5331C2.41657 14.3856 2.41715 14.9798 2.45495 15.4424C2.49203 15.8963 2.56116 16.1571 2.6618 16.3546C2.87752 16.778 3.22172 17.1222 3.64509 17.3379C3.81435 17.4241 4.03007 17.4872 4.37396 17.5268L5.25829 12.2209L5.26307 12.1922C5.37775 11.5041 5.47071 10.9463 5.58132 10.4956C5.6957 10.0294 5.84061 9.62484 6.08535 9.25681C6.47711 8.66769 7.02753 8.20141 7.67305 7.91183C8.07631 7.73092 8.49921 7.6545 8.9778 7.6183C9.44058 7.5833 10.006 7.58331 10.7037 7.58331H10.7037L10.7328 7.58331H15.3891L15.4223 7.58331C15.5811 7.58331 15.7329 7.58331 15.8779 7.58391ZM12.5177 17.5833C12.5118 17.5832 12.5058 17.5831 12.4999 17.5831H6.46656C6.258 17.5831 6.06489 17.5831 5.88539 17.5825L6.73788 12.4675C6.85848 11.7439 6.9426 11.2422 7.0381 10.853C7.13135 10.473 7.22358 10.254 7.33439 10.0874C7.56944 9.73394 7.8997 9.45417 8.28701 9.28042C8.46958 9.19852 8.70075 9.14354 9.09092 9.11403C9.49049 9.08381 9.99919 9.08331 10.7328 9.08331H15.3891C16.0523 9.08331 16.5015 9.08397 16.8442 9.11366C17.18 9.14274 17.3331 9.19481 17.4276 9.24903C17.6811 9.39445 17.8757 9.62411 17.9774 9.89808C18.0154 10.0002 18.0416 10.1598 18.015 10.4958C17.988 10.8387 17.9148 11.282 17.8058 11.9361L17.4286 14.1991C17.308 14.9227 17.2239 15.4244 17.1284 15.8136C17.0351 16.1936 16.9429 16.4126 16.8321 16.5792C16.597 16.9327 16.2668 17.2125 15.8795 17.3862C15.6969 17.4681 15.4657 17.5231 15.0755 17.5526C14.676 17.5828 14.1673 17.5833 13.4337 17.5833H12.5177Z" fill="#7F8995"/>
</svg>
