<svg width="25" height="22" viewBox="0 0 25 22" fill="none" xmlns="http://www.w3.org/2000/svg">
<path d="M16.4136 14.8213H7.62753L3.86523 21.3931C4.31785 21.6232 4.83183 21.7708 5.16425 21.7708C8.62047 21.7708 15.674 21.7196 19.1755 21.7196C19.5356 21.7196 19.8726 21.5969 20.1748 21.4046L16.4136 14.8213Z" fill="#4185F3"/>
<path d="M3.86549 21.3941L7.62779 14.8223H0.00397275C0.00013706 15.279 0.162515 15.6968 0.416949 16.1735C1.12578 17.4996 2.32508 19.6194 3.02957 20.7267C3.20319 20.9995 3.8926 21.4079 3.86549 21.3941Z" fill="#1767D1"/>
<path d="M16.4141 14.8218L20.1766 21.4041C20.6643 21.0942 21.0616 20.6032 21.3197 20.1511C21.9022 19.1316 22.8872 17.4339 23.5666 16.2845C23.8824 15.75 24.0052 15.2701 23.9975 14.8213L16.4141 14.8218Z" fill="#E94235"/>
<path d="M7.62787 14.8228L12.0164 7.19338L8.09429 0.654297C7.67006 0.933279 7.3072 1.31199 7.14252 1.60043C5.43053 4.60301 1.98173 10.7567 0.247488 13.7982C0.0697825 14.1094 -0.0153 14.4649 0.00225925 14.8228H7.62787Z" fill="#30A753"/>
<path d="M16.414 14.8222L12.0176 7.1928L15.832 0.661133C16.2563 0.940371 16.7219 1.31141 16.8866 1.60011C18.5986 4.60243 22.0474 10.7562 23.7824 13.7976C23.9614 14.1103 24.0154 14.4642 23.998 14.8222H16.414Z" fill="#F9BC00"/>
<path d="M8.09375 0.654456L12.0164 7.19252L15.8309 0.660849C15.4371 0.430708 14.8793 0.294413 14.3393 0.27728C12.8367 0.22716 10.4008 0.206959 9.08975 0.263983C8.76653 0.278047 8.09784 0.651643 8.09375 0.654456V0.654456Z" fill="#0F8038"/>
</svg>
