<svg width="30" height="30" viewBox="0 0 30 30" fill="none" xmlns="http://www.w3.org/2000/svg">
<path d="M28.1267 15.2915C28.1267 14.2123 28.0373 13.4248 27.8439 12.6082H15.2695V17.4789H22.6504C22.5017 18.6894 21.6981 20.5123 19.9123 21.7372L19.8873 21.9003L23.8631 24.9187L24.1386 24.9457C26.6683 22.656 28.1267 19.2873 28.1267 15.2915Z" fill="#4285F4"/>
<path d="M15.269 28.125C18.885 28.125 21.9206 26.9582 24.138 24.9458L19.9118 21.7373C18.7808 22.5103 17.263 23.0498 15.269 23.0498C11.7273 23.0498 8.72141 20.7603 7.64989 17.5957L7.49282 17.6088L3.35875 20.7442L3.30469 20.8915C5.50704 25.179 10.0308 28.125 15.269 28.125Z" fill="#34A853"/>
<path d="M7.6507 17.5958C7.36797 16.7792 7.20434 15.9041 7.20434 15C7.20434 14.0958 7.36797 13.2208 7.63582 12.4042L7.62833 12.2302L3.44244 9.04443L3.30549 9.10827C2.39779 10.8875 1.87695 12.8854 1.87695 15C1.87695 17.1146 2.39779 19.1124 3.30549 20.8916L7.6507 17.5958Z" fill="#FBBC05"/>
<path d="M15.269 6.94997C17.7839 6.94997 19.4803 8.01454 20.4476 8.90419L24.2273 5.2875C21.906 3.17292 18.8851 1.875 15.269 1.875C10.0309 1.875 5.50705 4.82081 3.30469 9.10828L7.63503 12.4042C8.72144 9.23958 11.7274 6.94997 15.269 6.94997Z" fill="#EB4335"/>
</svg>
