<svg width="54" height="54" viewBox="0 0 54 54" fill="none" xmlns="http://www.w3.org/2000/svg">
<rect width="53.8328" height="53.8328" rx="26.9164" fill="url(#paint0_linear_2138_4966)"/>
<path d="M27.7498 19.6667C27.7498 19.2524 27.4141 18.9167 26.9998 18.9167C26.5856 18.9167 26.2498 19.2524 26.2498 19.6667H27.7498ZM26.2498 34.3333C26.2498 34.7475 26.5856 35.0833 26.9998 35.0833C27.4141 35.0833 27.7498 34.7475 27.7498 34.3333H26.2498ZM34.3332 27.75C34.7474 27.75 35.0832 27.4142 35.0832 27C35.0832 26.5858 34.7474 26.25 34.3332 26.25V27.75ZM19.6665 26.25C19.2523 26.25 18.9165 26.5858 18.9165 27C18.9165 27.4142 19.2523 27.75 19.6665 27.75L19.6665 26.25ZM26.2498 19.6667V34.3333H27.7498V19.6667H26.2498ZM34.3332 26.25L19.6665 26.25L19.6665 27.75L34.3332 27.75V26.25Z" fill="white"/>
<defs>
<linearGradient id="paint0_linear_2138_4966" x1="0.0316842" y1="26.9136" x2="53.8331" y2="26.9136" gradientUnits="userSpaceOnUse">
<stop stop-color="#FC6060"/>
<stop offset="0.333333" stop-color="#C160FC"/>
<stop offset="0.692708" stop-color="#7B60E8"/>
<stop offset="1" stop-color="#3F3CFF"/>
</linearGradient>
</defs>
</svg>
