<svg width="27" height="27" viewBox="0 0 27 27" fill="none" xmlns="http://www.w3.org/2000/svg">
<path d="M13.0014 -0.000976562C5.8209 -0.000976562 0 5.81992 0 13.0005C0 20.181 5.8209 26.0019 13.0014 26.0019C20.182 26.0019 26.0029 20.181 26.0029 13.0005C26.0029 5.81992 20.1819 -0.000976562 13.0014 -0.000976562ZM9.53263 19.2861H6.67803V10.0637H9.53263V19.2861ZM8.09173 8.85593C7.15945 8.85593 6.40367 8.09399 6.40367 7.15424C6.40367 6.21439 7.15955 5.4525 8.09173 5.4525C9.0239 5.4525 9.77968 6.21439 9.77968 7.15424C9.77973 8.09404 9.02396 8.85593 8.09173 8.85593ZM20.2302 19.2861H17.3895V14.4451C17.3895 13.1173 16.8851 12.3762 15.8353 12.3762C14.6926 12.3762 14.0957 13.1481 14.0957 14.4451V19.2861H11.3578V10.0637H14.0957V11.3058C14.0957 11.3058 14.9193 9.78236 16.8748 9.78236C18.8304 9.78236 20.2303 10.9764 20.2303 13.4466L20.2302 19.2861Z" fill="url(#paint0_linear_2147_2430)"/>
<defs>
<linearGradient id="paint0_linear_2147_2430" x1="3.80803" y1="3.80705" x2="22.1948" y2="22.1939" gradientUnits="userSpaceOnUse">
<stop stop-color="#2489BE"/>
<stop offset="1" stop-color="#0575B3"/>
</linearGradient>
</defs>
</svg>
