<svg width="20" height="20" viewBox="0 0 20 20" fill="none" xmlns="http://www.w3.org/2000/svg">
<g clip-path="url(#clip0_2138_5030)">
<rect opacity="0.12" x="1.6665" y="1.66666" width="16.6667" height="16.6667" rx="5" fill="#7F8995"/>
<path fill-rule="evenodd" clip-rule="evenodd" d="M9.63294 0.916656H9.6665H10.3332H10.3667C11.7384 0.916652 12.8139 0.916648 13.6782 0.987268C14.5584 1.05918 15.2855 1.20803 15.9436 1.54337C17.0255 2.09464 17.9052 2.97428 18.4565 4.05621C18.7918 4.71434 18.9406 5.44145 19.0126 6.32159C19.0832 7.18588 19.0832 8.26122 19.0832 9.63278V9.63283V9.63288V9.63293V9.63298V9.63303V9.63308V9.66665V10.3333V10.3669V10.3669V10.367V10.367V10.3671V10.3671V10.3672C19.0832 11.7388 19.0832 12.8141 19.0126 13.6784C18.9406 14.5585 18.7918 15.2856 18.4565 15.9438C17.9052 17.0257 17.0255 17.9053 15.9436 18.4566C15.2855 18.7919 14.5584 18.9408 13.6782 19.0127C12.814 19.0833 11.7386 19.0833 10.367 19.0833H10.367H10.3669H10.3669H10.3668H10.3668H10.3668H10.3332H9.66651H9.63293H9.63288H9.63283H9.63278H9.63274H9.63269H9.63264C8.26107 19.0833 7.18573 19.0833 6.32144 19.0127C5.4413 18.9408 4.71419 18.7919 4.05606 18.4566C2.97413 17.9053 2.09449 17.0257 1.54322 15.9438C1.20788 15.2856 1.05903 14.5585 0.987117 13.6784C0.916496 12.814 0.9165 11.7386 0.916504 10.3669V10.3669V10.3333V9.66666V9.6331C0.916499 8.26138 0.916495 7.18595 0.987115 6.3216C1.05903 5.44145 1.20788 4.71434 1.54322 4.05621C2.09449 2.97428 2.97413 2.09464 4.05606 1.54337C4.71419 1.20804 5.4413 1.05918 6.32144 0.987269C7.18579 0.916649 8.26122 0.916652 9.63293 0.916656H9.63294ZM6.44359 2.48229C5.65621 2.54662 5.14847 2.67025 4.73704 2.87988C3.93735 3.28734 3.28719 3.93751 2.87973 4.7372C2.67009 5.14863 2.54647 5.65636 2.48213 6.44374C2.41709 7.23988 2.4165 8.25415 2.4165 9.66666L2.4165 10.3333C2.4165 11.7458 2.41709 12.7601 2.48213 13.5562C2.54647 14.3436 2.67009 14.8514 2.87973 15.2628C3.28719 16.0625 3.93736 16.7126 4.73705 17.1201C5.14847 17.3297 5.65621 17.4534 6.44359 17.5177C7.23973 17.5827 8.254 17.5833 9.66651 17.5833H10.3332C11.7457 17.5833 12.76 17.5827 13.5561 17.5177C14.3435 17.4534 14.8512 17.3297 15.2626 17.1201C16.0623 16.7126 16.7125 16.0625 17.1199 15.2628C17.3296 14.8514 17.4532 14.3436 17.5175 13.5562C17.5826 12.7601 17.5832 11.7458 17.5832 10.3333V9.66665C17.5832 8.25415 17.5826 7.23987 17.5175 6.44374C17.4532 5.65636 17.3296 5.14862 17.1199 4.7372C16.7125 3.93751 16.0623 3.28734 15.2626 2.87988C14.8512 2.67024 14.3435 2.54662 13.5561 2.48229C12.7599 2.41724 11.7457 2.41666 10.3332 2.41666L9.6665 2.41666C8.254 2.41666 7.23972 2.41724 6.44359 2.48229ZM7.58317 14.1667C7.58317 13.7524 7.91896 13.4167 8.33317 13.4167L14.9998 13.4167C15.4141 13.4167 15.7498 13.7524 15.7498 14.1667C15.7498 14.5809 15.4141 14.9167 14.9998 14.9167L8.33317 14.9167C7.91896 14.9167 7.58317 14.5809 7.58317 14.1667ZM8.33317 9.24999C7.91896 9.24999 7.58317 9.58578 7.58317 9.99999C7.58317 10.4142 7.91896 10.75 8.33317 10.75L14.9998 10.75C15.4141 10.75 15.7498 10.4142 15.7498 9.99999C15.7498 9.58578 15.4141 9.24999 14.9998 9.24999L8.33317 9.24999ZM7.58317 5.83332C7.58317 5.41911 7.91896 5.08332 8.33317 5.08332L14.9998 5.08332C15.4141 5.08332 15.7498 5.41911 15.7498 5.83332C15.7498 6.24754 15.4141 6.58332 14.9998 6.58332L8.33317 6.58332C7.91896 6.58332 7.58317 6.24754 7.58317 5.83332ZM4.99984 4.99999C4.5396 4.99999 4.1665 5.37309 4.1665 5.83332C4.1665 6.29356 4.5396 6.66666 4.99984 6.66666C5.46007 6.66666 5.83317 6.29356 5.83317 5.83332C5.83317 5.37309 5.46007 4.99999 4.99984 4.99999ZM4.1665 9.99999C4.1665 9.53975 4.5396 9.16666 4.99984 9.16666C5.46007 9.16666 5.83317 9.53975 5.83317 9.99999C5.83317 10.4602 5.46008 10.8333 4.99984 10.8333C4.5396 10.8333 4.1665 10.4602 4.1665 9.99999ZM4.99984 13.3333C4.5396 13.3333 4.1665 13.7064 4.1665 14.1667C4.1665 14.6269 4.5396 15 4.99984 15C5.46008 15 5.83317 14.6269 5.83317 14.1667C5.83317 13.7064 5.46008 13.3333 4.99984 13.3333Z" fill="#7F8995"/>
</g>
<defs>
<clipPath id="clip0_2138_5030">
<rect width="20" height="20" fill="white"/>
</clipPath>
</defs>
</svg>
