<svg width="29" height="29" viewBox="0 0 29 29" fill="none" xmlns="http://www.w3.org/2000/svg">
<g clip-path="url(#clip0_2138_4906)">
<path d="M3.53549 14.1421L3.29832 13.4306C3.02384 13.5221 2.82646 13.7633 2.79111 14.0505C2.75576 14.3376 2.88874 14.6195 3.13283 14.7749L3.53549 14.1421ZM19.4454 8.83882L20.1569 9.07599C20.2467 8.80649 20.1766 8.50937 19.9757 8.30849C19.7748 8.10762 19.4777 8.03748 19.2082 8.12731L19.4454 8.83882ZM14.1421 24.7487L13.5093 25.1514C13.6647 25.3955 13.9466 25.5285 14.2337 25.4931C14.5209 25.4578 14.7621 25.2604 14.8536 24.9859L14.1421 24.7487ZM15.2617 14.0832C15.5546 13.7903 15.5546 13.3154 15.2617 13.0225C14.9688 12.7296 14.4939 12.7296 14.201 13.0225L15.2617 14.0832ZM3.77266 14.8536L19.6826 9.55034L19.2082 8.12731L3.29832 13.4306L3.77266 14.8536ZM18.7339 8.60165L13.4306 24.5116L14.8536 24.9859L20.1569 9.07599L18.7339 8.60165ZM14.7748 24.3461L10.65 17.8643L9.38456 18.6696L13.5093 25.1514L14.7748 24.3461ZM10.42 17.6342L3.93815 13.5094L3.13283 14.7749L9.61464 18.8997L10.42 17.6342ZM10.5476 18.7972L15.2617 14.0832L14.201 13.0225L9.48697 17.7366L10.5476 18.7972Z" fill="#7F8995"/>
</g>
<defs>
<clipPath id="clip0_2138_4906">
<rect width="20" height="20" fill="white" transform="translate(14.1421) rotate(45)"/>
</clipPath>
</defs>
</svg>
