<svg width="21" height="20" viewBox="0 0 21 20" fill="none" xmlns="http://www.w3.org/2000/svg">
<path d="M9.66683 4.91667C10.081 4.91667 10.4168 4.58088 10.4168 4.16667C10.4168 3.75246 10.081 3.41667 9.66683 3.41667V4.91667ZM17.0835 10.8333C17.0835 10.4191 16.7477 10.0833 16.3335 10.0833C15.9193 10.0833 15.5835 10.4191 15.5835 10.8333H17.0835ZM15.155 2.98816L15.6853 3.51849L15.155 2.98816ZM17.512 5.34518L16.9817 4.81485L17.512 5.34518ZM8.00016 10.143L7.46983 9.61265C7.32918 9.7533 7.25016 9.94407 7.25016 10.143H8.00016ZM8.00016 12.5H7.25016C7.25016 12.9142 7.58595 13.25 8.00016 13.25V12.5ZM10.3572 12.5V13.25C10.5561 13.25 10.7469 13.171 10.8875 13.0303L10.3572 12.5ZM14.6668 15.9167H5.50016V17.4167H14.6668V15.9167ZM4.5835 15V5.83334H3.0835V15H4.5835ZM5.50016 4.91667H9.66683V3.41667H5.50016V4.91667ZM15.5835 10.8333V15H17.0835V10.8333H15.5835ZM5.50016 15.9167C4.9939 15.9167 4.5835 15.5063 4.5835 15H3.0835C3.0835 16.3347 4.16547 17.4167 5.50016 17.4167V15.9167ZM14.6668 17.4167C16.0015 17.4167 17.0835 16.3347 17.0835 15H15.5835C15.5835 15.5063 15.1731 15.9167 14.6668 15.9167V17.4167ZM4.5835 5.83334C4.5835 5.32708 4.9939 4.91667 5.50016 4.91667V3.41667C4.16547 3.41667 3.0835 4.49865 3.0835 5.83334H4.5835ZM15.6853 3.51849C16.0433 3.1605 16.6237 3.1605 16.9817 3.51849L18.0423 2.45783C17.0986 1.51406 15.5684 1.51406 14.6247 2.45783L15.6853 3.51849ZM16.9817 3.51849C17.3397 3.87647 17.3397 4.45687 16.9817 4.81485L18.0423 5.87551C18.9861 4.93174 18.9861 3.40159 18.0423 2.45783L16.9817 3.51849ZM14.6247 2.45783L7.46983 9.61265L8.53049 10.6733L15.6853 3.51849L14.6247 2.45783ZM7.25016 10.143L7.25016 12.5H8.75016L8.75016 10.143L7.25016 10.143ZM16.9817 4.81485L9.82685 11.9697L10.8875 13.0303L18.0423 5.87551L16.9817 4.81485ZM10.3572 11.75H8.00016V13.25H10.3572V11.75Z" fill="#7F8995"/>
</svg>
