<svg width="21" height="20" viewBox="0 0 21 20" fill="none" xmlns="http://www.w3.org/2000/svg">
<path d="M3.30317 12.803C3.01027 13.0959 3.01027 13.5707 3.30317 13.8636C3.59606 14.1565 4.07093 14.1565 4.36383 13.8636L3.30317 12.803ZM7.65498 9.51182L8.18531 10.0422L7.65498 9.51182ZM10.012 9.51182L10.5423 8.98149V8.98149L10.012 9.51182ZM13.3032 13.8636C13.5961 14.1565 14.0709 14.1565 14.3638 13.8636C14.6567 13.5707 14.6567 13.0959 14.3638 12.803L13.3032 13.8636ZM11.6365 11.1363C11.3436 11.4292 11.3436 11.9041 11.6365 12.197C11.9294 12.4899 12.4043 12.4899 12.6972 12.197L11.6365 11.1363ZM15.8453 10.3452L15.315 10.8755L15.8453 10.3452ZM16.6365 12.197C16.9294 12.4899 17.4043 12.4899 17.6972 12.197C17.9901 11.9041 17.9901 11.4292 17.6972 11.1363L16.6365 12.197ZM12.1668 5.91665C11.7526 5.91665 11.4168 6.25243 11.4168 6.66665C11.4168 7.08086 11.7526 7.41665 12.1668 7.41665V5.91665ZM12.1752 7.41665C12.5894 7.41665 12.9252 7.08086 12.9252 6.66665C12.9252 6.25243 12.5894 5.91665 12.1752 5.91665V7.41665ZM5.50016 4.08331H15.5002V2.58331H5.50016V4.08331ZM16.4168 4.99998V15H17.9168V4.99998H16.4168ZM15.5002 15.9166H5.50016V17.4166H15.5002V15.9166ZM4.5835 15V4.99998H3.0835V15H4.5835ZM5.50016 15.9166C4.9939 15.9166 4.5835 15.5062 4.5835 15H3.0835C3.0835 16.3347 4.16547 17.4166 5.50016 17.4166V15.9166ZM16.4168 15C16.4168 15.5062 16.0064 15.9166 15.5002 15.9166V17.4166C16.8349 17.4166 17.9168 16.3347 17.9168 15H16.4168ZM15.5002 4.08331C16.0064 4.08331 16.4168 4.49372 16.4168 4.99998H17.9168C17.9168 3.66529 16.8349 2.58331 15.5002 2.58331V4.08331ZM5.50016 2.58331C4.16547 2.58331 3.0835 3.66529 3.0835 4.99998H4.5835C4.5835 4.49372 4.9939 4.08331 5.50016 4.08331V2.58331ZM4.36383 13.8636L8.18531 10.0422L7.12465 8.98149L3.30317 12.803L4.36383 13.8636ZM9.48168 10.0422L13.3032 13.8636L14.3638 12.803L10.5423 8.98149L9.48168 10.0422ZM8.18531 10.0422C8.54329 9.68417 9.1237 9.68417 9.48168 10.0422L10.5423 8.98149C9.59857 8.03773 8.06842 8.03773 7.12465 8.98149L8.18531 10.0422ZM12.6972 12.197L14.0186 10.8755L12.958 9.81483L11.6365 11.1363L12.6972 12.197ZM15.315 10.8755L16.6365 12.197L17.6972 11.1363L16.3757 9.81483L15.315 10.8755ZM14.0186 10.8755C14.3766 10.5175 14.957 10.5175 15.315 10.8755L16.3757 9.81483C15.4319 8.87106 13.9018 8.87106 12.958 9.81483L14.0186 10.8755ZM12.1668 7.41665H12.1752V5.91665H12.1668V7.41665Z" fill="#7F8995"/>
</svg>
