<svg width="20" height="20" viewBox="0 0 20 20" fill="none" xmlns="http://www.w3.org/2000/svg">
<path d="M10.75 7.5C10.75 7.08579 10.4142 6.75 10 6.75C9.58579 6.75 9.25 7.08579 9.25 7.5H10.75ZM9.25 12.5C9.25 12.9142 9.58579 13.25 10 13.25C10.4142 13.25 10.75 12.9142 10.75 12.5H9.25ZM12.5 10.75C12.9142 10.75 13.25 10.4142 13.25 10C13.25 9.58579 12.9142 9.25 12.5 9.25V10.75ZM7.5 9.25C7.08579 9.25 6.75 9.58579 6.75 10C6.75 10.4142 7.08579 10.75 7.5 10.75V9.25ZM9.25 7.5V10H10.75V7.5H9.25ZM9.25 10V12.5H10.75V10H9.25ZM12.5 9.25H10V10.75H12.5V9.25ZM10 9.25H7.5V10.75H10V9.25ZM16.75 10C16.75 13.7279 13.7279 16.75 10 16.75V18.25C14.5563 18.25 18.25 14.5563 18.25 10H16.75ZM10 16.75C6.27208 16.75 3.25 13.7279 3.25 10H1.75C1.75 14.5563 5.44365 18.25 10 18.25V16.75ZM3.25 10C3.25 6.27208 6.27208 3.25 10 3.25V1.75C5.44365 1.75 1.75 5.44365 1.75 10H3.25ZM10 3.25C13.7279 3.25 16.75 6.27208 16.75 10H18.25C18.25 5.44365 14.5563 1.75 10 1.75V3.25Z" fill="#7F8995"/>
</svg>
