<svg width="25" height="26" viewBox="0 0 25 26" fill="none" xmlns="http://www.w3.org/2000/svg">
<circle cx="12.2178" cy="12.9998" r="11" stroke="#EAEDF0" stroke-width="2"/>
<path d="M1.32308 11.4836C0.776063 11.4075 0.266506 11.7894 0.236167 12.3409C0.114758 14.5476 0.605065 16.7523 1.66246 18.7078C2.8789 20.9573 4.78222 22.7595 7.09485 23.8513C9.40747 24.9432 12.0084 25.2676 14.5184 24.7774C17.0284 24.2871 19.3161 23.0078 21.0479 21.126C22.7798 19.2442 23.8651 16.8583 24.1456 14.3164C24.4262 11.7744 23.8873 9.20924 22.6076 6.99506C21.3278 4.78087 19.3741 3.03344 17.0315 2.00762C14.9951 1.11591 12.7574 0.809998 10.5683 1.11387C10.0212 1.18981 9.68287 1.72926 9.80407 2.26808L10.0077 3.17327C10.1289 3.71209 10.664 4.04478 11.2129 3.98358C12.7903 3.80773 14.3926 4.04826 15.8571 4.68956C17.6282 5.4651 19.1052 6.78619 20.0727 8.46015C21.0402 10.1341 21.4476 12.0734 21.2355 13.9952C21.0234 15.9169 20.2029 17.7207 18.8936 19.1434C17.5843 20.5661 15.8548 21.5332 13.9572 21.9039C12.0596 22.2745 10.0932 22.0292 8.34483 21.2038C6.59644 20.3783 5.1575 19.0159 4.23785 17.3151C3.47739 15.9088 3.1049 14.332 3.14943 12.7454C3.16492 12.1934 2.78903 11.6876 2.24202 11.6115L1.32308 11.4836Z" fill="url(#paint0_linear_2175_3040)"/>
<defs>
<linearGradient id="paint0_linear_2175_3040" x1="0.220083" y1="12.7799" x2="24.216" y2="13.22" gradientUnits="userSpaceOnUse">
<stop stop-color="#FC6060"/>
<stop offset="0.333333" stop-color="#C160FC"/>
<stop offset="0.692708" stop-color="#7B60E8"/>
<stop offset="1" stop-color="#3F3CFF"/>
</linearGradient>
</defs>
</svg>
