<svg width="34" height="34" viewBox="0 0 34 34" fill="none" xmlns="http://www.w3.org/2000/svg">
<circle cx="16.9424" cy="16.9998" r="11" stroke="#EAEDF0" stroke-width="2"/>
<path d="M7.98299 23.3827C7.53319 23.7031 7.42528 24.3307 7.78207 24.7523C8.79588 25.9501 10.037 26.94 11.4372 27.6628C13.1343 28.5389 15.0159 28.9972 16.9257 28.9998C18.8355 29.0024 20.7184 28.549 22.4178 27.6775C24.1171 26.806 25.584 25.5415 26.6963 23.989C27.8086 22.4365 28.5344 20.641 28.8132 18.7516C29.092 16.8623 28.9158 14.9337 28.2993 13.1261C27.6828 11.3185 26.6438 9.68419 25.2686 8.35896C24.1339 7.26555 22.7974 6.40861 21.3372 5.8338C20.8233 5.63151 20.2638 5.93549 20.105 6.46444L19.7759 7.56029C19.6171 8.08925 19.9202 8.64162 20.4279 8.85903C21.4112 9.2801 22.3126 9.87696 23.0868 10.623C24.1017 11.601 24.8685 12.8071 25.3235 14.1411C25.7784 15.475 25.9084 16.8983 25.7027 18.2926C25.4969 19.687 24.9614 21.012 24.1405 22.1577C23.3196 23.3034 22.2371 24.2366 20.983 24.8798C19.7289 25.523 18.3393 25.8575 16.9299 25.8556C15.5205 25.8537 14.1319 25.5155 12.8795 24.869C11.9241 24.3758 11.0691 23.7141 10.3542 22.9185C9.98514 22.5076 9.36465 22.3983 8.91485 22.7187L7.98299 23.3827Z" fill="url(#paint0_linear_2175_3026)"/>
<defs>
<linearGradient id="paint0_linear_2175_3026" x1="8.96431" y1="25.9642" x2="24.9192" y2="8.03541" gradientUnits="userSpaceOnUse">
<stop stop-color="#FC6060"/>
<stop offset="0.333333" stop-color="#C160FC"/>
<stop offset="0.692708" stop-color="#7B60E8"/>
<stop offset="1" stop-color="#3F3CFF"/>
</linearGradient>
</defs>
</svg>
