<svg width="20" height="20" viewBox="0 0 20 20" fill="none" xmlns="http://www.w3.org/2000/svg">
<path d="M10.8286 10.7555L10.6873 10.0189L10.8286 10.7555ZM6.17795 7.18028C6.00137 7.55497 6.16197 8.00186 6.53666 8.17844C6.91135 8.35502 7.35824 8.19441 7.53482 7.81972L6.17795 7.18028ZM9.25004 11.6667C9.25004 12.0809 9.58583 12.4167 10 12.4167C10.4143 12.4167 10.75 12.0809 10.75 11.6667H9.25004ZM10 13.4167C9.58579 13.4167 9.25 13.7525 9.25 14.1667C9.25 14.5809 9.58579 14.9167 10 14.9167V13.4167ZM10.0083 14.9167C10.4225 14.9167 10.7583 14.5809 10.7583 14.1667C10.7583 13.7525 10.4225 13.4167 10.0083 13.4167V14.9167ZM16.75 10C16.75 13.7279 13.7279 16.75 10 16.75V18.25C14.5563 18.25 18.25 14.5563 18.25 10H16.75ZM10 16.75C6.27208 16.75 3.25 13.7279 3.25 10H1.75C1.75 14.5563 5.44365 18.25 10 18.25V16.75ZM3.25 10C3.25 6.27208 6.27208 3.25 10 3.25V1.75C5.44365 1.75 1.75 5.44365 1.75 10H3.25ZM10 3.25C13.7279 3.25 16.75 6.27208 16.75 10H18.25C18.25 5.44365 14.5563 1.75 10 1.75V3.25ZM12.5834 8.33333C12.5834 8.99711 11.936 9.77938 10.6873 10.0189L10.9699 11.4921C12.6014 11.1791 14.0834 10.002 14.0834 8.33333H12.5834ZM10 6.58333C10.7739 6.58333 11.4457 6.81953 11.9071 7.16557C12.3682 7.51143 12.5834 7.93197 12.5834 8.33333H14.0834C14.0834 7.35398 13.5524 6.52453 12.8071 5.96557C12.062 5.40678 11.0671 5.08333 10 5.08333V6.58333ZM7.53482 7.81972C7.83509 7.18258 8.75112 6.58333 10 6.58333V5.08333C8.34626 5.08333 6.79287 5.87544 6.17795 7.18028L7.53482 7.81972ZM10.6873 10.0189C9.96993 10.1565 9.25004 10.7641 9.25004 11.6667H10.75C10.75 11.6505 10.7547 11.6235 10.79 11.5861C10.8287 11.5451 10.8928 11.5069 10.9699 11.4921L10.6873 10.0189ZM10 14.9167H10.0083V13.4167H10V14.9167Z" fill="#7F8995"/>
</svg>
