<svg width="20" height="20" viewBox="0 0 20 20" fill="none" xmlns="http://www.w3.org/2000/svg">
<circle opacity="0.12" cx="9.99984" cy="10" r="8.33333" fill="#B8C1CC"/>
<path fill-rule="evenodd" clip-rule="evenodd" d="M9.99984 2.41666C5.81168 2.41666 2.4165 5.81184 2.4165 10C2.4165 14.1882 5.81168 17.5833 9.99984 17.5833C14.188 17.5833 17.5832 14.1882 17.5832 10C17.5832 5.81184 14.188 2.41666 9.99984 2.41666ZM0.916504 10C0.916504 4.98341 4.98325 0.916664 9.99984 0.916664C15.0164 0.916664 19.0832 4.98341 19.0832 10C19.0832 15.0166 15.0164 19.0833 9.99984 19.0833C4.98325 19.0833 0.916504 15.0166 0.916504 10ZM10.8332 13.3333C10.8332 13.7936 10.4601 14.1667 9.99984 14.1667C9.5396 14.1667 9.1665 13.7936 9.1665 13.3333C9.1665 12.8731 9.5396 12.5 9.99984 12.5C10.4601 12.5 10.8332 12.8731 10.8332 13.3333ZM9.08317 8.33333C9.08317 7.82707 9.49358 7.41666 9.99984 7.41666C10.5061 7.41666 10.9165 7.82707 10.9165 8.33333V8.43443C10.9165 8.70436 10.8093 8.96323 10.6184 9.1541L9.46951 10.303C9.17661 10.5959 9.17661 11.0708 9.46951 11.3637C9.7624 11.6566 10.2373 11.6566 10.5302 11.3637L11.6791 10.2148C12.1512 9.74259 12.4165 9.10218 12.4165 8.43443V8.33333C12.4165 6.99864 11.3345 5.91666 9.99984 5.91666C8.66515 5.91666 7.58317 6.99864 7.58317 8.33333V8.75C7.58317 9.16421 7.91896 9.5 8.33317 9.5C8.74738 9.5 9.08317 9.16421 9.08317 8.75V8.33333Z" fill="#7F8995"/>
</svg>
