<svg width="24" height="24" viewBox="0 0 24 24" fill="none" xmlns="http://www.w3.org/2000/svg">
<path fill-rule="evenodd" clip-rule="evenodd" d="M15.2006 24C16.5273 23.999 17.601 22.9245 17.6 21.6005C17.601 20.2765 16.5263 19.202 15.1996 19.201H12.7993V21.5995C12.7983 22.9235 13.873 23.998 15.2006 24C15.1996 24 15.1996 24 15.2006 24M15.2006 17.6H21.5996C22.9263 17.599 24.001 16.5245 24 15.2005C24.002 13.8765 22.9273 12.802 21.6006 12.8H15.2006C13.874 12.801 12.7993 13.8755 12.8003 15.1995C12.7993 16.5245 13.874 17.599 15.2006 17.6V17.6Z" fill="#36C5F0"/>
<path fill-rule="evenodd" clip-rule="evenodd" d="M-0.000514283 15.2005C-0.00149482 16.5245 1.07318 17.599 2.39985 17.6C3.72652 17.599 4.80119 16.5245 4.80021 15.2005V12.8H2.39985C1.07318 12.801 -0.00149482 13.8755 -0.000514283 15.2005ZM6.39947 15.2005V21.6005C6.39849 22.9235 7.47218 23.998 8.79885 24C10.1255 23.999 11.2002 22.9245 11.1992 21.6005V15.2005C11.2012 13.8765 10.1265 12.802 8.79983 12.8C7.47316 12.801 6.39849 13.8755 6.39947 15.2005Z" fill="#2EB67D"/>
<path fill-rule="evenodd" clip-rule="evenodd" d="M8.80081 0.000193787C7.47414 0.00117238 6.39947 1.07567 6.40045 2.3997C6.39947 3.72374 7.47414 4.79824 8.80081 4.79922H11.2012V2.3997C11.2022 1.07665 10.1275 0.00215097 8.80081 0.000193787ZM8.80081 6.40117H2.40082C1.07415 6.40215 -0.000520802 7.47665 0.000459738 8.80068C-0.00150134 10.1247 1.07317 11.1992 2.39984 11.2012H8.79983C10.1265 11.2002 11.2012 10.1257 11.2002 8.80166C11.2012 7.47665 10.1275 6.40215 8.80081 6.40117V6.40117Z" fill="#ECB22E"/>
<path fill-rule="evenodd" clip-rule="evenodd" d="M24 8.80069C24.001 7.47665 22.9263 6.40215 21.5996 6.40117C20.273 6.40215 19.1983 7.47665 19.1993 8.80069V11.2002H21.5996C22.9263 11.1992 24.001 10.1247 24 8.80069ZM17.6 8.80069V2.40069C17.602 1.07665 16.5273 0.00215277 15.2006 0.000195579C13.874 0.00117417 12.7993 1.07567 12.8003 2.39971V8.79873C12.7983 10.1228 13.873 11.1973 15.1997 11.1992C16.5273 11.1992 17.601 10.1247 17.6 8.80069C17.6 8.79971 17.6 8.80069 17.6 8.80069Z" fill="#E01E5A"/>
</svg>
