<svg width="21" height="20" viewBox="0 0 21 20" fill="none" xmlns="http://www.w3.org/2000/svg">
<path d="M3 3.41667C2.58579 3.41667 2.25 3.75245 2.25 4.16667C2.25 4.58088 2.58579 4.91667 3 4.91667V3.41667ZM13 4.91667C13.4142 4.91667 13.75 4.58088 13.75 4.16667C13.75 3.75245 13.4142 3.41667 13 3.41667V4.91667ZM8.75 2.5C8.75 2.08579 8.41421 1.75 8 1.75C7.58579 1.75 7.25 2.08579 7.25 2.5H8.75ZM7.25 4.16667C7.25 4.58088 7.58579 4.91667 8 4.91667C8.41421 4.91667 8.75 4.58088 8.75 4.16667H7.25ZM8.33389 12.6042C8.62157 12.9022 9.09637 12.9106 9.39438 12.6229C9.6924 12.3353 9.70077 11.8605 9.41309 11.5624L8.33389 12.6042ZM6.53409 7.2081C6.37288 6.82655 5.93288 6.64792 5.55133 6.80913C5.16977 6.97034 4.99114 7.41034 5.15235 7.79189L6.53409 7.2081ZM10.9167 14.25C10.5025 14.25 10.1667 14.5858 10.1667 15C10.1667 15.4142 10.5025 15.75 10.9167 15.75V14.25ZM16.75 15.75C17.1642 15.75 17.5 15.4142 17.5 15C17.5 14.5858 17.1642 14.25 16.75 14.25V15.75ZM8.99585 17.1646C8.8106 17.5351 8.96077 17.9856 9.33126 18.1708C9.70174 18.3561 10.1522 18.2059 10.3375 17.8354L8.99585 17.1646ZM13.8333 9.16667L14.5042 8.83126C14.3771 8.57717 14.1174 8.41667 13.8333 8.41667C13.5493 8.41667 13.2896 8.57717 13.1625 8.83126L13.8333 9.16667ZM17.3292 17.8354C17.5144 18.2059 17.9649 18.3561 18.3354 18.1708C18.7059 17.9856 18.8561 17.5351 18.6708 17.1646L17.3292 17.8354ZM11.8656 4.29076C11.9341 3.88225 11.6585 3.49554 11.25 3.427C10.8415 3.35847 10.4548 3.63407 10.3863 4.04257L11.8656 4.29076ZM2.66623 14.4358C2.29529 14.6202 2.14403 15.0703 2.32836 15.4412C2.5127 15.8122 2.96284 15.9634 3.33377 15.7791L2.66623 14.4358ZM3 4.91667H13V3.41667H3V4.91667ZM7.25 2.5V4.16667H8.75V2.5H7.25ZM9.41309 11.5624C8.20344 10.3093 7.22171 8.8356 6.53409 7.2081L5.15235 7.79189C5.91283 9.59182 6.99795 11.2203 8.33389 12.6042L9.41309 11.5624ZM10.9167 15.75H16.75V14.25H10.9167V15.75ZM10.3375 17.8354L14.5042 9.50208L13.1625 8.83126L8.99585 17.1646L10.3375 17.8354ZM13.1625 9.50208L17.3292 17.8354L18.6708 17.1646L14.5042 8.83126L13.1625 9.50208ZM10.3863 4.04257C9.62028 8.60838 6.681 12.4407 2.66623 14.4358L3.33377 15.7791C7.76849 13.5752 11.0182 9.34198 11.8656 4.29076L10.3863 4.04257Z" fill="#7F8995"/>
</svg>
