<svg width="20" height="20" viewBox="0 0 20 20" fill="none" xmlns="http://www.w3.org/2000/svg">
<path d="M4.36114 13.7471C4.00054 13.951 3.87345 14.4085 4.07728 14.7691C4.2811 15.1297 4.73865 15.2568 5.09925 15.053L4.36114 13.7471ZM15.4889 15.053C15.8495 15.2568 16.307 15.1297 16.5108 14.7691C16.7147 14.4085 16.5876 13.951 16.227 13.7471L15.4889 15.053ZM11.9705 8.08822C11.9705 9.01411 11.2199 9.76469 10.2941 9.76469V11.2647C12.0484 11.2647 13.4705 9.84253 13.4705 8.08822H11.9705ZM10.2941 9.76469C9.36817 9.76469 8.61759 9.01411 8.61759 8.08822H7.11759C7.11759 9.84253 8.53974 11.2647 10.2941 11.2647V9.76469ZM8.61759 8.08822C8.61759 7.16233 9.36817 6.41175 10.2941 6.41175V4.91175C8.53974 4.91175 7.11759 6.3339 7.11759 8.08822H8.61759ZM10.2941 6.41175C11.2199 6.41175 11.9705 7.16233 11.9705 8.08822H13.4705C13.4705 6.3339 12.0484 4.91175 10.2941 4.91175V6.41175ZM10.2941 12.1912C8.13917 12.1912 6.11401 12.7564 4.36114 13.7471L5.09925 15.053C6.63283 14.1861 8.40451 13.6912 10.2941 13.6912V12.1912ZM16.227 13.7471C14.4741 12.7564 12.449 12.1912 10.2941 12.1912V13.6912C12.1836 13.6912 13.9553 14.1861 15.4889 15.053L16.227 13.7471ZM16.8235 9.70586C16.8235 13.312 13.9002 16.2353 10.2941 16.2353V17.7353C14.7286 17.7353 18.3235 14.1404 18.3235 9.70586H16.8235ZM10.2941 16.2353C6.68797 16.2353 3.76465 13.312 3.76465 9.70586H2.26465C2.26465 14.1404 5.85954 17.7353 10.2941 17.7353V16.2353ZM3.76465 9.70586C3.76465 6.09977 6.68797 3.17645 10.2941 3.17645V1.67645C5.85954 1.67645 2.26465 5.27134 2.26465 9.70586H3.76465ZM10.2941 3.17645C13.9002 3.17645 16.8235 6.09977 16.8235 9.70586H18.3235C18.3235 5.27134 14.7286 1.67645 10.2941 1.67645V3.17645Z" fill="#7F8995"/>
</svg>
