<svg width="21" height="20" viewBox="0 0 21 20" fill="none" xmlns="http://www.w3.org/2000/svg">
<path d="M5.50016 4.08331H7.16683V2.58331H5.50016V4.08331ZM8.0835 4.99998V6.66665H9.5835V4.99998H8.0835ZM7.16683 7.58331H5.50016V9.08331H7.16683V7.58331ZM4.5835 6.66665V4.99998H3.0835V6.66665H4.5835ZM5.50016 7.58331C4.9939 7.58331 4.5835 7.17291 4.5835 6.66665H3.0835C3.0835 8.00133 4.16547 9.08331 5.50016 9.08331V7.58331ZM8.0835 6.66665C8.0835 7.17291 7.67309 7.58331 7.16683 7.58331V9.08331C8.50152 9.08331 9.5835 8.00133 9.5835 6.66665H8.0835ZM7.16683 4.08331C7.67309 4.08331 8.0835 4.49372 8.0835 4.99998H9.5835C9.5835 3.66529 8.50152 2.58331 7.16683 2.58331V4.08331ZM5.50016 2.58331C4.16547 2.58331 3.0835 3.66529 3.0835 4.99998H4.5835C4.5835 4.49372 4.9939 4.08331 5.50016 4.08331V2.58331ZM13.8335 4.08331H15.5002V2.58331H13.8335V4.08331ZM16.4168 4.99998V6.66665H17.9168V4.99998H16.4168ZM15.5002 7.58331H13.8335V9.08331H15.5002V7.58331ZM12.9168 6.66665V4.99998H11.4168V6.66665H12.9168ZM13.8335 7.58331C13.3272 7.58331 12.9168 7.17291 12.9168 6.66665H11.4168C11.4168 8.00133 12.4988 9.08331 13.8335 9.08331V7.58331ZM16.4168 6.66665C16.4168 7.17291 16.0064 7.58331 15.5002 7.58331V9.08331C16.8349 9.08331 17.9168 8.00133 17.9168 6.66665H16.4168ZM15.5002 4.08331C16.0064 4.08331 16.4168 4.49372 16.4168 4.99998H17.9168C17.9168 3.66529 16.8349 2.58331 15.5002 2.58331V4.08331ZM13.8335 2.58331C12.4988 2.58331 11.4168 3.66529 11.4168 4.99998H12.9168C12.9168 4.49372 13.3272 4.08331 13.8335 4.08331V2.58331ZM5.50016 12.4166H7.16683V10.9166H5.50016V12.4166ZM8.0835 13.3333V15H9.5835V13.3333H8.0835ZM7.16683 15.9166H5.50016V17.4166H7.16683V15.9166ZM4.5835 15V13.3333H3.0835V15H4.5835ZM5.50016 15.9166C4.9939 15.9166 4.5835 15.5062 4.5835 15H3.0835C3.0835 16.3347 4.16547 17.4166 5.50016 17.4166V15.9166ZM8.0835 15C8.0835 15.5062 7.67309 15.9166 7.16683 15.9166V17.4166C8.50152 17.4166 9.5835 16.3347 9.5835 15H8.0835ZM7.16683 12.4166C7.67309 12.4166 8.0835 12.8271 8.0835 13.3333H9.5835C9.5835 11.9986 8.50152 10.9166 7.16683 10.9166V12.4166ZM5.50016 10.9166C4.16547 10.9166 3.0835 11.9986 3.0835 13.3333H4.5835C4.5835 12.8271 4.9939 12.4166 5.50016 12.4166V10.9166ZM13.8335 12.4166H15.5002V10.9166H13.8335V12.4166ZM16.4168 13.3333V15H17.9168V13.3333H16.4168ZM15.5002 15.9166H13.8335V17.4166H15.5002V15.9166ZM12.9168 15V13.3333H11.4168V15H12.9168ZM13.8335 15.9166C13.3272 15.9166 12.9168 15.5062 12.9168 15H11.4168C11.4168 16.3347 12.4988 17.4166 13.8335 17.4166V15.9166ZM16.4168 15C16.4168 15.5062 16.0064 15.9166 15.5002 15.9166V17.4166C16.8349 17.4166 17.9168 16.3347 17.9168 15H16.4168ZM15.5002 12.4166C16.0064 12.4166 16.4168 12.8271 16.4168 13.3333H17.9168C17.9168 11.9986 16.8349 10.9166 15.5002 10.9166V12.4166ZM13.8335 10.9166C12.4988 10.9166 11.4168 11.9986 11.4168 13.3333H12.9168C12.9168 12.8271 13.3272 12.4166 13.8335 12.4166V10.9166Z" fill="#7F8995"/>
</svg>
