<svg width="24" height="24" viewBox="0 0 24 24" fill="none" xmlns="http://www.w3.org/2000/svg">
<path d="M1.70508 12C1.70508 16.0749 4.07309 19.5961 7.5069 21.265L2.59634 7.81051C2.00768 9.12871 1.70397 10.5564 1.70508 12ZM18.9489 11.4805C18.9489 10.2083 18.4919 9.32722 18.1 8.64144C17.5782 7.79347 17.0892 7.07537 17.0892 6.22739C17.0892 5.28109 17.8067 4.40021 18.8177 4.40021C18.8633 4.40021 18.9066 4.40589 18.9513 4.40844C17.1196 2.73052 14.6795 1.70605 11.9994 1.70605C8.40306 1.70605 5.23898 3.55126 3.39828 6.3461C3.6398 6.35335 3.86761 6.35824 4.06075 6.35824C5.13751 6.35824 6.80427 6.22759 6.80427 6.22759C7.3592 6.19488 7.42463 7.00994 6.87048 7.07556C6.87048 7.07556 6.31261 7.14118 5.69206 7.1737L9.44084 18.3243L11.6939 11.5677L10.0898 7.1735C9.53545 7.14099 9.01029 7.07537 9.01029 7.07537C8.45555 7.04285 8.52059 6.19468 9.07532 6.22739C9.07532 6.22739 10.7754 6.35805 11.7869 6.35805C12.8635 6.35805 14.5304 6.22739 14.5304 6.22739C15.0858 6.19468 15.151 7.00975 14.5964 7.07537C14.5964 7.07537 14.0376 7.14099 13.4182 7.1735L17.1384 18.2396L18.165 14.8084C18.6103 13.3845 18.9489 12.3618 18.9489 11.4805Z" fill="#00749A"/>
<path d="M12.1805 12.9L9.0918 21.8749C10.0361 22.1532 11.0154 22.2945 11.9999 22.2945C13.1987 22.2945 14.3483 22.087 15.4184 21.7109C15.3897 21.666 15.3652 21.6185 15.3451 21.5691L12.1805 12.9ZM21.0327 7.06055C21.077 7.38845 21.1021 7.74065 21.1021 8.11909C21.1021 9.16373 20.907 10.338 20.3193 11.8064L17.1749 20.8978C20.2353 19.1131 22.2938 15.7975 22.2938 11.9995C22.2966 10.2732 21.8628 8.57422 21.0327 7.06055Z" fill="#00749A"/>
<path d="M12.0001 0C5.38341 0 0 5.38302 0 11.9997C0 18.6172 5.38322 24.0002 12.0001 24.0002C18.6166 24.0002 24.0008 18.6174 24.0008 11.9997C24.0006 5.38302 18.6166 0 12.0001 0ZM12.0001 23.45C5.68684 23.45 0.550231 18.3134 0.550231 11.9997C0.550231 5.68664 5.68664 0.550427 12.0001 0.550427C18.3132 0.550427 23.4494 5.68664 23.4494 11.9997C23.4494 18.3134 18.313 23.45 12.0001 23.45Z" fill="#00749A"/>
</svg>
