<?xml version="1.0" encoding="utf-8"?>
<!-- Generator: Adobe Illustrator 27.3.1, SVG Export Plug-In . SVG Version: 6.00 Build 0)  -->
<svg version="1.1" id="Layer_1" xmlns="http://www.w3.org/2000/svg" xmlns:xlink="http://www.w3.org/1999/xlink" x="0px" y="0px"
	 viewBox="0 0 99 26" style="enable-background:new 0 0 99 26;" xml:space="preserve">
<style type="text/css">
	.st0{fill-rule:evenodd;clip-rule:evenodd;fill:url(#SVGID_1_);}
	.st1{fill:#0C1523;}
</style>
<linearGradient id="SVGID_1_" gradientUnits="userSpaceOnUse" x1="2" y1="15" x2="24" y2="15" gradientTransform="matrix(1 0 0 -1 0 28)">
	<stop  offset="0" style="stop-color:#FC6060"/>
	<stop  offset="0.3333" style="stop-color:#C160FC"/>
	<stop  offset="0.6927" style="stop-color:#7B60E8"/>
	<stop  offset="1" style="stop-color:#3F3CFF"/>
</linearGradient>
<path class="st0" d="M13,24c6.1,0,11-4.9,11-11c0-6.1-4.9-11-11-11C6.9,2,2,6.9,2,13C2,19.1,6.9,24,13,24z M13,20.8
	c4.3,0,7.8-3.5,7.8-7.8c0-4.3-3.5-7.8-7.8-7.8c-4.3,0-7.8,3.5-7.8,7.8C5.2,17.3,8.7,20.8,13,20.8z"/>
<g>
	<path class="st1" d="M29.4,20.8V5.9h6.2c1.1,0,2.1,0.2,2.8,0.5c0.8,0.3,1.3,0.8,1.7,1.3c0.4,0.6,0.6,1.2,0.6,2
		c0,0.6-0.1,1.1-0.4,1.5c-0.2,0.4-0.6,0.8-1,1.1c-0.4,0.3-0.9,0.5-1.4,0.6V13c0.6,0,1.2,0.2,1.7,0.5c0.5,0.3,0.9,0.7,1.2,1.2
		s0.5,1.1,0.5,1.9c0,0.8-0.2,1.5-0.6,2.1c-0.4,0.6-1,1.1-1.8,1.5c-0.8,0.4-1.7,0.5-2.8,0.5H29.4z M33,12h2c0.4,0,0.7-0.1,1-0.2
		c0.3-0.1,0.5-0.3,0.7-0.6C37,11,37,10.7,37,10.4c0-0.5-0.2-0.9-0.5-1.2c-0.4-0.3-0.8-0.4-1.4-0.4H33V12z M33,17.9h2.2
		c0.8,0,1.4-0.1,1.7-0.4c0.4-0.3,0.6-0.7,0.6-1.2c0-0.4-0.1-0.7-0.3-1s-0.4-0.5-0.8-0.6s-0.7-0.2-1.2-0.2H33V17.9z"/>
	<path class="st1" d="M46.2,21c-0.7,0-1.3-0.1-1.9-0.4s-1-0.6-1.3-1.1c-0.3-0.5-0.5-1.1-0.5-1.8c0-0.6,0.1-1.1,0.3-1.6
		c0.2-0.4,0.5-0.8,0.9-1c0.4-0.3,0.8-0.5,1.3-0.6s1-0.2,1.6-0.3c0.6-0.1,1.1-0.1,1.5-0.2c0.4-0.1,0.7-0.2,0.8-0.3
		c0.2-0.1,0.3-0.3,0.3-0.5v0c0-0.4-0.1-0.7-0.4-0.9c-0.3-0.2-0.6-0.3-1-0.3c-0.5,0-0.8,0.1-1.1,0.3s-0.5,0.5-0.5,0.8L42.9,13
		c0.1-0.7,0.3-1.3,0.8-1.8c0.4-0.5,1-1,1.7-1.3c0.7-0.3,1.6-0.5,2.6-0.5c0.7,0,1.4,0.1,2,0.3c0.6,0.2,1.1,0.4,1.6,0.7
		c0.4,0.3,0.8,0.7,1,1.2c0.2,0.5,0.4,1,0.4,1.6v7.6h-3.4v-1.6h-0.1c-0.2,0.4-0.5,0.7-0.8,1c-0.3,0.3-0.7,0.5-1.1,0.6
		C47.2,20.9,46.7,21,46.2,21z M47.3,18.7c0.4,0,0.7-0.1,1-0.2s0.6-0.4,0.7-0.6s0.3-0.6,0.3-1v-1.1c-0.1,0.1-0.2,0.1-0.4,0.1
		c-0.1,0-0.3,0.1-0.5,0.1s-0.3,0.1-0.5,0.1s-0.4,0.1-0.5,0.1c-0.3,0.1-0.6,0.1-0.9,0.2c-0.2,0.1-0.4,0.3-0.5,0.4
		c-0.1,0.2-0.2,0.4-0.2,0.6c0,0.4,0.1,0.7,0.4,0.8C46.5,18.6,46.9,18.7,47.3,18.7z"/>
	<path class="st1" d="M64.8,13l-3.3,0.1c0-0.2-0.1-0.4-0.3-0.6s-0.3-0.3-0.6-0.4c-0.2-0.1-0.5-0.2-0.8-0.2c-0.4,0-0.8,0.1-1.1,0.2
		s-0.4,0.4-0.4,0.7c0,0.2,0.1,0.4,0.3,0.6c0.2,0.2,0.5,0.3,1,0.4l2.2,0.4c1.1,0.2,1.9,0.6,2.5,1.1c0.5,0.5,0.8,1.2,0.8,2
		c0,0.8-0.2,1.4-0.7,2c-0.4,0.6-1.1,1-1.8,1.3c-0.8,0.3-1.7,0.5-2.7,0.5c-1.6,0-2.9-0.3-3.8-1s-1.4-1.5-1.6-2.6l3.5-0.1
		c0.1,0.4,0.3,0.7,0.6,0.9c0.3,0.2,0.7,0.3,1.2,0.3c0.5,0,0.8-0.1,1.1-0.3c0.3-0.2,0.4-0.4,0.4-0.7c0-0.3-0.1-0.5-0.3-0.6
		c-0.2-0.2-0.6-0.3-1-0.4l-2-0.4c-1.1-0.2-2-0.6-2.5-1.1c-0.5-0.6-0.8-1.3-0.8-2.1c0-0.7,0.2-1.4,0.6-1.9c0.4-0.5,1-0.9,1.7-1.2
		c0.7-0.3,1.6-0.4,2.6-0.4c1.5,0,2.7,0.3,3.6,1C64.2,11.1,64.7,11.9,64.8,13z"/>
	<path class="st1" d="M72.1,21c-1.2,0-2.2-0.2-3-0.7c-0.8-0.5-1.5-1.1-2-2c-0.5-0.9-0.7-1.9-0.7-3.1c0-1.2,0.2-2.2,0.7-3
		c0.5-0.9,1.1-1.5,1.9-2c0.8-0.5,1.8-0.7,2.9-0.7c0.8,0,1.5,0.1,2.2,0.4s1.2,0.6,1.7,1.1s0.9,1.1,1.1,1.8c0.3,0.7,0.4,1.5,0.4,2.4
		v0.9h-9.7V14h6.4c0-0.4-0.1-0.7-0.3-1c-0.2-0.3-0.4-0.5-0.7-0.7c-0.3-0.2-0.7-0.3-1-0.3c-0.4,0-0.8,0.1-1.1,0.3
		c-0.3,0.2-0.6,0.4-0.8,0.7s-0.3,0.6-0.3,1v2.1c0,0.5,0.1,0.9,0.3,1.2c0.2,0.3,0.4,0.6,0.8,0.8s0.7,0.3,1.2,0.3c0.3,0,0.6,0,0.9-0.1
		c0.3-0.1,0.5-0.2,0.7-0.4s0.3-0.4,0.4-0.6l3.3,0.1c-0.1,0.7-0.4,1.4-0.9,1.9c-0.5,0.5-1.1,1-1.8,1.3C73.9,20.9,73,21,72.1,21z"/>
</g>
</svg>
