<svg width="99" height="26" viewBox="0 0 99 26" fill="none" xmlns="http://www.w3.org/2000/svg">
<path d="M34.5635 20H29.6135V6.03636H34.6044C36.009 6.03636 37.2181 6.31591 38.2317 6.875C39.2454 7.42954 40.0249 8.22727 40.5704 9.26818C41.1204 10.3091 41.3954 11.5545 41.3954 13.0045C41.3954 14.4591 41.1204 15.7091 40.5704 16.7545C40.0249 17.8 39.2408 18.6023 38.2181 19.1614C37.1999 19.7205 35.9817 20 34.5635 20ZM32.5658 17.4705H34.4408C35.3135 17.4705 36.0476 17.3159 36.6431 17.0068C37.2431 16.6932 37.6931 16.2091 37.9931 15.5545C38.2976 14.8955 38.4499 14.0455 38.4499 13.0045C38.4499 11.9727 38.2976 11.1295 37.9931 10.475C37.6931 9.82045 37.2454 9.33864 36.6499 9.02954C36.0544 8.72045 35.3204 8.56591 34.4476 8.56591H32.5658V17.4705ZM46.1141 20.1977C45.4459 20.1977 44.8505 20.0818 44.3277 19.85C43.805 19.6136 43.3914 19.2659 43.0868 18.8068C42.7868 18.3432 42.6368 17.7659 42.6368 17.075C42.6368 16.4932 42.7437 16.0045 42.9573 15.6091C43.1709 15.2136 43.4618 14.8955 43.83 14.6545C44.1982 14.4136 44.6164 14.2318 45.0846 14.1091C45.5573 13.9864 46.0527 13.9 46.5709 13.85C47.18 13.7864 47.6709 13.7273 48.0437 13.6727C48.4164 13.6136 48.6868 13.5273 48.855 13.4136C49.0232 13.3 49.1073 13.1318 49.1073 12.9091V12.8682C49.1073 12.4364 48.9709 12.1023 48.6982 11.8659C48.43 11.6295 48.0482 11.5114 47.5527 11.5114C47.03 11.5114 46.6141 11.6273 46.305 11.8591C45.9959 12.0864 45.7914 12.3727 45.6914 12.7182L43.005 12.5C43.1414 11.8636 43.4096 11.3136 43.8096 10.85C44.2096 10.3818 44.7255 10.0227 45.3573 9.77273C45.9937 9.51818 46.73 9.39091 47.5664 9.39091C48.1482 9.39091 48.705 9.45909 49.2368 9.59545C49.7732 9.73182 50.2482 9.94318 50.6618 10.2295C51.08 10.5159 51.4096 10.8841 51.6505 11.3341C51.8914 11.7795 52.0118 12.3136 52.0118 12.9364V20H49.2573V18.5477H49.1755C49.0073 18.875 48.7823 19.1636 48.5005 19.4136C48.2187 19.6591 47.88 19.8523 47.4846 19.9932C47.0891 20.1295 46.6323 20.1977 46.1141 20.1977ZM46.9459 18.1932C47.3732 18.1932 47.7505 18.1091 48.0777 17.9409C48.405 17.7682 48.6618 17.5364 48.8482 17.2455C49.0346 16.9545 49.1277 16.625 49.1277 16.2568V15.1455C49.0368 15.2045 48.9118 15.2591 48.7527 15.3091C48.5982 15.3545 48.4232 15.3977 48.2277 15.4386C48.0323 15.475 47.8368 15.5091 47.6414 15.5409C47.4459 15.5682 47.2687 15.5932 47.1096 15.6159C46.7687 15.6659 46.4709 15.7455 46.2164 15.8545C45.9618 15.9636 45.7641 16.1114 45.6232 16.2977C45.4823 16.4795 45.4118 16.7068 45.4118 16.9795C45.4118 17.375 45.555 17.6773 45.8414 17.8864C46.1323 18.0909 46.5005 18.1932 46.9459 18.1932ZM62.5789 12.5136L59.9198 12.6773C59.8743 12.45 59.7766 12.2455 59.6266 12.0636C59.4766 11.8773 59.2789 11.7295 59.0334 11.6205C58.7925 11.5068 58.5039 11.45 58.1675 11.45C57.7175 11.45 57.338 11.5455 57.0289 11.7364C56.7198 11.9227 56.5652 12.1727 56.5652 12.4864C56.5652 12.7364 56.6652 12.9477 56.8652 13.1205C57.0652 13.2932 57.4084 13.4318 57.8948 13.5364L59.7902 13.9182C60.8084 14.1273 61.5675 14.4636 62.0675 14.9273C62.5675 15.3909 62.8175 16 62.8175 16.7545C62.8175 17.4409 62.6152 18.0432 62.2107 18.5614C61.8107 19.0795 61.2607 19.4841 60.5607 19.775C59.8652 20.0614 59.063 20.2045 58.1539 20.2045C56.7675 20.2045 55.663 19.9159 54.8402 19.3386C54.0221 18.7568 53.5425 17.9659 53.4016 16.9659L56.2584 16.8159C56.3448 17.2386 56.5539 17.5614 56.8857 17.7841C57.2175 18.0023 57.6425 18.1114 58.1607 18.1114C58.6698 18.1114 59.0789 18.0136 59.388 17.8182C59.7016 17.6182 59.8607 17.3614 59.8652 17.0477C59.8607 16.7841 59.7493 16.5682 59.5312 16.4C59.313 16.2273 58.9766 16.0955 58.5221 16.0045L56.7084 15.6432C55.6857 15.4386 54.9243 15.0841 54.4243 14.5795C53.9289 14.075 53.6812 13.4318 53.6812 12.65C53.6812 11.9773 53.863 11.3977 54.2266 10.9114C54.5948 10.425 55.1107 10.05 55.7743 9.78636C56.4425 9.52273 57.2243 9.39091 58.1198 9.39091C59.4425 9.39091 60.4834 9.67045 61.2425 10.2295C62.0062 10.7886 62.4516 11.55 62.5789 12.5136ZM67.151 13.9455V20H64.2465V6.03636H67.0692V11.375H67.1919C67.4283 10.7568 67.8101 10.2727 68.3374 9.92273C68.8647 9.56818 69.526 9.39091 70.3215 9.39091C71.0488 9.39091 71.6829 9.55 72.2238 9.86818C72.7692 10.1818 73.1919 10.6341 73.4919 11.225C73.7965 11.8114 73.9465 12.5136 73.9419 13.3318V20H71.0374V13.85C71.0419 13.2045 70.8783 12.7023 70.5465 12.3432C70.2192 11.9841 69.7601 11.8045 69.1692 11.8045C68.7738 11.8045 68.4238 11.8886 68.1192 12.0568C67.8192 12.225 67.5829 12.4705 67.4101 12.7932C67.2419 13.1114 67.1556 13.4955 67.151 13.9455ZM77.2459 23.9273C76.8777 23.9273 76.5323 23.8977 76.2096 23.8386C75.8914 23.7841 75.6277 23.7136 75.4187 23.6273L76.0732 21.4591C76.4141 21.5636 76.7209 21.6205 76.9937 21.6295C77.2709 21.6386 77.5096 21.575 77.7096 21.4386C77.9141 21.3023 78.08 21.0705 78.2073 20.7432L78.3777 20.3L74.6209 9.52727H77.6755L79.8437 17.2182H79.9527L82.1414 9.52727H85.2164L81.1459 21.1318C80.9505 21.6955 80.6846 22.1864 80.3482 22.6045C80.0164 23.0273 79.5959 23.3523 79.0868 23.5795C78.5777 23.8114 77.9641 23.9273 77.2459 23.9273Z" fill="white"/>
<path fill-rule="evenodd" clip-rule="evenodd" d="M13 24C19.0751 24 24 19.0751 24 13C24 6.92487 19.0751 2 13 2C6.92487 2 2 6.92487 2 13C2 19.0751 6.92487 24 13 24ZM13 20.8C17.3078 20.8 20.8 17.3078 20.8 13C20.8 8.69218 17.3078 5.2 13 5.2C8.69218 5.2 5.2 8.69218 5.2 13C5.2 17.3078 8.69218 20.8 13 20.8Z" fill="url(#paint0_linear_2138_4997)"/>
<defs>
<linearGradient id="paint0_linear_2138_4997" x1="2.01295" y1="12.9989" x2="24.0001" y2="12.9989" gradientUnits="userSpaceOnUse">
<stop stop-color="#FC6060"/>
<stop offset="0.333333" stop-color="#C160FC"/>
<stop offset="0.692708" stop-color="#7B60E8"/>
<stop offset="1" stop-color="#3F3CFF"/>
</linearGradient>
</defs>
</svg>
